<svg width="662" height="662" viewBox="0 0 662 662" fill="none" xmlns="http://www.w3.org/2000/svg">
<path d="M260.065 33.1103C231.974 33.2958 203.801 35.9825 176.982 44.1754C146.332 53.5393 117.388 70.5409 97.6133 95.7604C75.8556 123.511 66.4573 160.756 73.0904 195.391C79.7242 230.023 102.466 261.358 133.648 277.826C160.949 292.247 192.774 295.166 221.744 305.847C236.228 311.188 250.201 318.636 261.077 329.593C271.952 340.551 279.512 355.321 279.682 370.759C279.834 384.772 273.957 398.337 265.594 409.584C257.232 420.831 246.474 430.041 235.612 438.896C224.75 447.751 213.621 456.409 204.256 466.835C194.893 477.263 187.281 489.712 184.855 503.516C182.158 518.877 186.158 534.928 193.956 548.444C235.18 541.548 285.214 537.82 336.63 537.813C399.158 537.814 459.192 543.315 503.854 553.136C522.448 534.531 538.248 513.053 550.794 489.91C571.947 450.888 584.098 407.309 588.815 363.171C593.193 322.195 591.223 280.354 580.865 240.467C570.508 200.579 551.616 162.681 524.332 131.795C493.561 96.963 452.755 71.7553 409.002 56.0776C365.248 40.3979 318.567 33.9544 272.094 33.1759C268.089 33.109 264.078 33.0841 260.065 33.1103Z" fill="#FDB8AF"/>
<path d="M503.524 591.443C503.524 601.377 485.94 610.905 454.642 617.929C423.343 624.954 380.893 628.9 336.63 628.9C292.365 628.9 249.917 624.954 218.617 617.929C187.318 610.905 169.735 601.377 169.735 591.443C169.735 581.509 187.318 571.982 218.617 564.958C249.917 557.934 292.365 553.987 336.63 553.987C380.893 553.987 423.343 557.934 454.642 564.958C485.94 571.982 503.524 581.509 503.524 591.443Z" fill="#1A1A1A"/>
<path d="M238.027 74.9667C217.404 74.9667 197.627 83.1575 183.044 97.7395C168.462 112.323 160.269 132.1 160.269 152.723C160.269 173.345 168.461 193.124 183.044 207.705C197.626 222.289 217.404 230.48 238.027 230.48C253.214 230.47 268.066 226.01 280.748 217.655C293.43 209.302 303.388 197.415 309.393 183.466L318.316 186.085C319.036 187.976 319.892 190.102 320.819 192.232C320.651 193.585 320.542 194.882 320.542 195.986C320.542 201.182 329.96 206.55 329.96 206.55C329.96 206.55 332.186 210.881 335.268 217.013C332.7 225.206 329.722 235.688 328.451 243.909C328.446 243.941 328.44 243.976 328.437 244.008C328.352 244.553 328.276 245.088 328.209 245.612C328.2 245.687 328.191 245.759 328.182 245.835C328.122 246.298 328.071 246.756 328.027 247.198C327.981 247.639 327.944 248.068 327.914 248.487C327.909 248.571 327.9 248.656 327.895 248.739C327.863 249.209 327.844 249.662 327.833 250.102C327.831 250.13 327.831 250.158 327.829 250.186C327.82 250.633 327.82 251.064 327.835 251.475C327.835 251.512 327.835 251.546 327.836 251.581C327.851 252.012 327.877 252.423 327.92 252.812V252.814C328.213 255.599 328.811 257.792 329.566 259.518V259.52C329.674 259.765 329.787 260.002 329.9 260.229C329.941 260.309 329.981 260.38 330.022 260.456C330.215 260.822 330.407 261.171 330.612 261.49L330.613 261.492C331.353 262.646 332.161 263.499 332.947 264.128H332.949C335.044 265.803 336.97 265.887 336.97 265.887C336.97 265.887 337.246 266.814 337.673 268.212C337.8 268.631 337.821 268.712 337.983 269.24C338.199 269.933 338.441 270.704 338.704 271.539C340.589 277.477 343.647 286.472 346.025 290.362C344.307 299.261 349.162 339.78 349.162 339.78C345.843 347.841 340.39 377.474 340.39 377.474C336.1 391.5 346.191 458.328 347.866 471.404C349.132 481.272 349.441 530.962 349.517 554.789C349.776 554.848 350.041 554.914 350.299 554.968C350.957 555.105 351.607 555.228 352.249 555.336C352.89 555.444 353.524 555.537 354.149 555.618C354.772 555.699 355.386 555.767 355.993 555.822C356.599 555.877 357.197 555.919 357.783 555.951C358.372 555.979 358.949 556.003 359.517 556.012C360.086 556.021 360.644 556.017 361.193 556.01C361.742 556.001 362.282 555.978 362.81 555.949C363.339 555.921 363.858 555.882 364.367 555.836C364.875 555.79 365.371 555.737 365.86 555.677C366.347 555.616 366.824 555.548 367.288 555.475C367.754 555.401 368.211 555.323 368.655 555.238C369.099 555.153 369.532 555.062 369.954 554.968C370.374 554.874 370.783 554.774 371.184 554.673C371.581 554.57 371.969 554.466 372.346 554.357C372.72 554.25 373.084 554.141 373.437 554.028C373.788 553.917 374.129 553.802 374.455 553.689C374.711 553.6 374.923 553.51 375.165 553.421C376.148 538.476 378.132 521.541 380.556 510.964C384.244 494.872 379.55 462.351 378.879 455.982C378.607 453.391 381.928 440.993 385.949 427.223C390.854 441.563 399.896 462.817 399.896 462.817C399.896 462.817 400.605 475.145 406.531 498.141C410.305 512.782 411.192 529.893 411.342 540.414C411.619 540.437 411.898 540.466 412.183 540.484C411.896 540.466 411.621 540.437 411.342 540.414C411.36 541.79 411.369 543.048 411.369 544.179C405.096 546.549 400.642 556.711 395.393 560.017C388.991 564.047 377.612 567.839 379.982 573.291C382.353 578.744 404.637 577.796 414.119 580.878C423.602 583.96 442.33 579.692 441.383 577.558C440.435 575.425 437.114 559.305 436.878 555.75C436.746 553.76 433.568 551.177 430.796 549.287C430.948 546.575 431.145 542.928 431.356 538.672C430.519 538.833 429.673 538.993 428.79 539.145C427.71 539.331 426.603 539.508 425.48 539.67C424.921 539.751 424.358 539.83 423.793 539.902C423.228 539.975 422.659 540.044 422.095 540.107C421.528 540.17 420.962 540.227 420.396 540.278C419.885 540.325 419.376 540.37 418.869 540.405C419.376 540.369 419.885 540.325 420.396 540.278C420.962 540.227 421.528 540.17 422.095 540.107C422.659 540.044 423.228 539.975 423.793 539.902C424.358 539.829 424.921 539.752 425.48 539.67C426.603 539.507 427.71 539.331 428.79 539.145C429.673 538.992 430.519 538.833 431.356 538.672C432.164 522.499 433.169 497.825 432.522 485.147C431.578 466.555 422.737 449.352 421.666 447.326C421.72 447.298 421.768 447.26 421.807 447.212C421.966 447.02 421.939 446.733 421.747 446.575C421.747 446.575 421.657 446.5 421.505 446.386L426.824 385.911C426.489 380.548 429.17 376.86 431.852 358.085C434.533 339.311 426.319 322.212 416.095 309.472C405.869 296.733 404.36 284.999 404.36 284.999C404.36 284.999 399.685 272.654 399.477 257.126C399.451 255.249 399.495 253.325 399.614 251.373C399.622 251.235 399.633 251.097 399.641 250.96C399.665 250.607 399.694 250.254 399.722 249.899C399.746 249.65 399.763 249.401 399.786 249.152C399.814 248.871 399.841 248.587 399.871 248.304C399.918 247.865 399.97 247.424 400.027 246.98C400.04 246.86 400.053 246.74 400.072 246.621C400.153 246.003 400.24 245.387 400.339 244.767C400.339 244.767 438.896 277.286 445.602 272.592C446.315 272.092 446.945 271.489 447.498 270.809C453.569 273.256 460.053 274.516 466.599 274.52C494.877 274.52 517.803 251.594 517.804 223.315C517.804 209.734 512.409 196.709 502.806 187.106C493.202 177.502 480.18 172.108 466.599 172.108C445.623 172.111 426.769 184.906 419.021 204.397C418.891 204.27 418.755 204.148 418.612 204.034C415.259 201.352 407.716 201.853 406.879 202.355C406.04 202.858 404.867 204.703 404.867 204.703C404.867 204.703 406.47 205.635 407.089 207.383L377.174 198.607C376.69 181.378 379.134 156.257 368.826 152.906C363.235 151.09 359.567 152.768 357.19 155.346C352.878 147.765 345.245 142.745 331.152 143.728C310.764 145.151 315.977 179.524 315.977 179.524C315.977 179.524 316.127 179.985 316.401 180.777L311.085 179.219C314.182 170.727 315.774 161.761 315.79 152.723C315.79 132.101 307.597 112.323 293.015 97.7415C278.434 83.1596 258.655 74.9667 238.034 74.9667H238.027ZM375.162 553.42C374.922 553.509 374.71 553.599 374.453 553.688C374.125 553.802 373.787 553.917 373.435 554.028C373.084 554.14 372.718 554.249 372.344 554.357C371.968 554.465 371.58 554.57 371.181 554.672C370.783 554.774 370.372 554.873 369.95 554.968C369.53 555.061 369.097 555.152 368.653 555.237C368.208 555.322 367.753 555.401 367.288 555.475C366.82 555.548 366.345 555.615 365.858 555.677C365.371 555.737 364.873 555.79 364.365 555.836C363.857 555.881 363.337 555.921 362.808 555.948C362.28 555.976 361.74 556 361.191 556.009C360.642 556.023 360.084 556.023 359.516 556.012C358.947 556.003 358.37 555.984 357.783 555.951C357.196 555.919 356.597 555.877 355.992 555.821C355.386 555.766 354.77 555.698 354.147 555.617C353.522 555.537 352.89 555.443 352.247 555.336C351.605 555.228 350.955 555.105 350.297 554.967C350.039 554.914 349.776 554.847 349.515 554.789H349.513C349.53 559.719 349.536 562.919 349.539 565.07C345.642 566.048 340.132 568.675 335.886 575.661C328.535 587.752 303.644 588.228 302.933 596.288C302.222 604.348 315.972 608.139 335.886 609.088C355.799 610.036 382.115 605.296 384.011 601.029C385.907 596.762 374.521 573.995 374.521 573.995V573.993C374.406 568.477 374.651 561.214 375.164 553.42H375.162ZM378.916 203.862L387.024 206.239C384.837 205.834 383.079 205.568 382.113 205.365C381.984 205.337 381.855 205.305 381.728 205.27C381.691 205.261 381.653 205.248 381.615 205.238C381.533 205.214 381.451 205.188 381.372 205.16C381.312 205.142 381.254 205.119 381.195 205.1C381.138 205.077 381.079 205.059 381.021 205.034C380.959 205.012 380.895 204.986 380.833 204.959H380.832C380.68 204.895 380.533 204.823 380.385 204.75C380.23 204.672 380.076 204.588 379.922 204.501C379.822 204.444 379.718 204.388 379.617 204.327C379.379 204.182 379.144 204.026 378.916 203.862ZM401.85 210.588L406.272 211.888C406.118 212.124 405.949 212.366 405.753 212.615C404.498 211.861 403.186 211.19 401.85 210.588ZM418.423 540.433C418.057 540.455 417.696 540.478 417.335 540.493C417.696 540.475 418.057 540.457 418.423 540.433ZM412.493 540.503C412.934 540.526 413.381 540.544 413.838 540.553C414.357 540.566 414.884 540.566 415.42 540.555C414.884 540.56 414.357 540.56 413.838 540.553C413.381 540.544 412.934 540.525 412.493 540.503Z" fill="white"/>
<path d="M424.279 549.144C424.279 549.144 434.235 554.597 434.471 558.152C434.708 561.708 438.027 577.829 438.976 579.962C439.924 582.096 421.196 586.364 411.714 583.281C402.231 580.2 379.947 581.148 377.576 575.695C375.206 570.243 386.585 566.45 392.986 562.419C399.385 558.389 404.602 544.165 413.372 546.299C422.144 548.433 424.279 549.144 424.279 549.144Z" fill="#808080"/>
<path d="M372.114 576.398C372.114 576.398 383.503 599.165 381.605 603.432C379.709 607.699 353.395 612.441 333.482 611.492C313.567 610.544 299.817 606.751 300.529 598.691C301.24 590.631 326.133 590.156 333.482 578.066C340.831 565.976 351.974 566.924 351.974 566.924L372.114 576.398Z" fill="#999999"/>
<path d="M408.936 542.819C409.257 542.847 409.575 542.879 409.905 542.898C410.405 542.928 410.915 542.947 411.434 542.957C411.953 542.966 412.48 542.966 413.016 542.959C413.552 542.952 414.096 542.936 414.645 542.912C415.194 542.888 415.748 542.857 416.306 542.819C416.864 542.78 417.425 542.734 417.99 542.682C418.555 542.63 419.12 542.574 419.687 542.511C420.253 542.448 420.822 542.379 421.387 542.306C421.952 542.234 422.513 542.155 423.075 542.074C424.196 541.912 425.304 541.735 426.385 541.548C427.265 541.397 428.113 541.237 428.95 541.077C428.497 550.139 428.104 556.616 428.104 556.616C428.104 556.616 419.774 561.944 415.27 561.233C410.765 560.522 408.867 552.7 408.867 552.7C408.867 552.7 409.021 548.822 408.936 542.819Z" fill="white"/>
<path d="M392.749 369.922C392.749 369.922 421.473 374.231 424.418 388.315L419.051 449.332C419.051 449.332 429.11 467.773 430.117 487.552C430.761 500.229 429.757 524.903 428.95 541.077C428.113 541.237 427.265 541.397 426.384 541.548C425.304 541.735 424.196 541.912 423.074 542.074C422.513 542.155 421.952 542.234 421.387 542.306C420.822 542.379 420.253 542.448 419.687 542.511C419.12 542.574 418.555 542.63 417.99 542.682C417.425 542.734 416.864 542.78 416.306 542.819C415.748 542.857 415.194 542.888 414.645 542.912C414.096 542.936 413.552 542.952 413.016 542.959C412.48 542.966 411.953 542.966 411.434 542.957C410.915 542.947 410.405 542.928 409.905 542.898C409.575 542.879 409.257 542.847 408.936 542.819C408.788 532.297 407.9 515.186 404.125 500.545C398.199 477.549 397.49 465.222 397.49 465.222C397.49 465.222 382.555 430.137 380.657 419.706C378.761 409.275 378.525 384.383 378.525 384.383L392.749 369.922Z" fill="#FFA684"/>
<path d="M347.112 557.194C347.371 557.252 347.636 557.318 347.893 557.372C348.553 557.509 349.202 557.632 349.843 557.74C350.486 557.849 351.119 557.941 351.743 558.022C352.367 558.103 352.982 558.171 353.587 558.227C354.193 558.282 354.791 558.324 355.38 558.356C355.967 558.387 356.543 558.407 357.111 558.416C357.679 558.426 358.239 558.425 358.788 558.414C359.336 558.403 359.876 558.382 360.405 558.353C360.933 558.324 361.452 558.286 361.96 558.24C362.469 558.195 362.966 558.141 363.454 558.08C363.941 558.02 364.418 557.953 364.884 557.879C365.35 557.805 365.805 557.727 366.25 557.642C366.694 557.557 367.126 557.466 367.548 557.372C367.97 557.278 368.379 557.178 368.778 557.076C369.177 556.974 369.564 556.87 369.939 556.761C370.69 556.546 371.394 556.321 372.05 556.092C372.305 556.003 372.517 555.914 372.759 555.825C372.245 563.619 372 570.881 372.116 576.397C372.116 576.397 359.208 586.791 352.503 584.108C345.797 581.426 347.137 570.029 347.137 570.029C347.137 570.029 347.137 564.938 347.112 557.194Z" fill="white"/>
<path d="M376.72 357.508C386.338 357.508 394.558 364.545 396.78 386.516C396.78 386.516 375.804 452.017 376.475 458.387C377.144 464.756 381.838 497.276 378.15 513.369C375.726 523.945 373.742 540.88 372.759 555.825C372.517 555.915 372.305 556.003 372.05 556.092C371.394 556.321 370.69 556.546 369.939 556.761C369.564 556.87 369.177 556.974 368.778 557.076C368.379 557.178 367.97 557.278 367.548 557.372C367.126 557.466 366.694 557.557 366.25 557.642C365.805 557.727 365.35 557.805 364.884 557.879C364.418 557.953 363.941 558.02 363.454 558.08C362.966 558.141 362.469 558.195 361.96 558.24C361.452 558.286 360.933 558.324 360.405 558.353C359.876 558.383 359.336 558.403 358.788 558.414C358.239 558.425 357.679 558.426 357.111 558.416C356.543 558.407 355.967 558.387 355.38 558.356C354.791 558.324 354.193 558.282 353.587 558.227C352.982 558.171 352.367 558.103 351.743 558.022C351.119 557.941 350.486 557.849 349.843 557.741C349.202 557.632 348.553 557.51 347.893 557.372C347.636 557.318 347.371 557.252 347.112 557.194C347.036 533.367 346.727 483.677 345.462 473.809C343.785 460.733 333.694 393.904 337.986 379.878C337.986 379.878 359.577 357.512 376.72 357.508Z" fill="#FFDBC1"/>
<path d="M401.954 287.402C401.954 287.402 403.461 299.136 413.688 311.876C423.913 324.617 432.127 341.714 429.446 360.488C426.764 379.263 424.081 382.95 424.416 388.315C424.416 388.315 405.55 384.145 396.778 386.516C396.778 386.516 357.662 374.664 337.985 379.878C337.985 379.878 343.439 350.246 346.758 342.185C346.758 342.185 341.901 301.664 343.619 292.765C345.334 283.868 348.653 272.725 348.653 272.725L389.666 272.013L401.954 287.402Z" fill="#999999"/>
<path d="M515.393 225.717C515.393 253.998 492.468 276.924 464.188 276.924C435.907 276.924 412.98 253.998 412.98 225.717C412.98 197.437 435.907 174.51 464.188 174.51C492.468 174.51 515.393 197.437 515.393 225.717Z" fill="#1A1A1A"/>
<path d="M446.619 228.227C446.619 235.591 452.587 241.56 459.951 241.56C467.314 241.56 473.282 235.591 473.282 228.227C473.282 220.865 467.314 214.896 459.951 214.896C452.587 214.896 446.619 220.865 446.619 228.227Z" fill="#333333"/>
<path d="M475.017 189.727C474.78 189.653 474.527 189.784 474.449 190.02C474.375 190.257 474.506 190.511 474.742 190.587C482.806 193.156 489.975 198.48 494.766 205.457C499.558 212.433 501.953 221.034 501.455 229.483C500.973 237.661 497.783 245.671 492.512 251.945C487.242 258.221 479.904 262.745 471.93 264.632C471.688 264.69 471.538 264.932 471.593 265.174C471.651 265.42 471.898 265.572 472.142 265.512C480.312 263.577 487.815 258.959 493.213 252.531C498.613 246.103 501.866 237.916 502.361 229.535C502.871 220.88 500.428 212.089 495.52 204.943C490.612 197.795 483.278 192.358 475.017 189.727Z" fill="#999999"/>
<path d="M313.567 181.928C313.567 181.928 323.167 211.297 328.532 206.938C333.895 202.581 336.242 199.562 336.242 199.562L337.248 206.269C337.248 206.269 324.172 242.475 325.514 255.216C326.855 267.956 334.566 268.292 334.566 268.292C334.566 268.292 339.931 286.731 343.619 292.765C343.619 292.765 348.982 269.298 401.954 287.402C401.954 287.402 394.577 267.956 397.931 247.169C397.931 247.169 436.486 279.691 443.19 274.997C449.895 270.303 449.561 256.893 440.174 249.851C430.786 242.811 418.589 236.454 411.951 223.652C405.312 210.85 384.215 208.717 379.709 207.769C375.206 206.821 371.649 200.893 371.649 200.893L359.085 171.022C359.085 171.022 316.888 172.445 313.567 181.928Z" fill="#FFDBC1"/>
<path d="M341.779 204.246C341.779 204.246 359.233 215.881 373.693 217.066C386.278 218.097 378.145 212.892 377.214 206.731C377.999 207.212 378.835 207.584 379.709 207.769C380.722 207.981 382.604 208.263 384.943 208.704C391.016 223.756 397.929 247.168 397.929 247.168C397.248 251.396 397.017 255.566 397.071 259.53C375.615 248.679 348.575 265.014 336.299 273.942C335.262 270.672 334.564 268.293 334.564 268.293C334.564 268.293 326.855 267.955 325.514 255.216C325.19 252.139 325.711 247.687 326.682 242.714C358.934 252.767 337.248 206.269 337.248 206.269L341.779 204.246Z" fill="#1A1A1A"/>
<path d="M313.567 181.928C313.567 181.928 308.353 147.554 328.74 146.131C349.128 144.71 356.002 155.851 358.848 169.126C361.692 182.403 361.722 187.157 361.722 187.157C354.082 185.099 345.823 185.106 336.841 187.517L313.567 181.928Z" fill="#1A1A1A"/>
<path d="M355.515 201.665C359.574 202.004 363.321 202.809 363.321 202.809C363.567 202.858 363.726 203.096 363.677 203.342C363.627 203.591 363.384 203.75 363.136 203.697C363.136 203.697 359.431 202.902 355.444 202.569C353.45 202.402 351.386 202.357 349.713 202.569C348.039 202.782 346.803 203.285 346.349 203.998C346.216 204.212 345.933 204.275 345.719 204.139C345.506 204.006 345.442 203.723 345.578 203.509C346.298 202.38 347.815 201.891 349.598 201.665C351.379 201.437 353.485 201.495 355.515 201.665Z" fill="#FFA684"/>
<path d="M350.659 166.707C350.659 166.707 353.005 150.95 366.416 155.309C379.825 159.667 371.649 200.893 376.422 213.621C376.422 213.621 375.133 216.661 366.751 200.233C366.751 200.233 367.087 203.921 371.445 210.961C371.445 210.961 374.477 217.231 361.722 198.893C361.722 198.893 354.011 187.828 350.659 166.707Z" fill="#1A1A1A"/>
<path d="M410.45 326.564C410.67 326.438 410.948 326.52 411.07 326.74C411.07 326.74 414.88 333.514 416.066 342.577C417.25 351.641 415.787 363.066 405.267 372.226L405.303 372.199C405.303 372.199 403.151 374.507 401.062 377.469C398.976 380.433 397.015 384.082 397.23 386.476C397.255 386.725 397.073 386.947 396.822 386.971C396.57 386.996 396.346 386.807 396.326 386.554C396.059 383.626 398.197 379.969 400.327 376.946C402.455 373.924 404.639 371.578 404.639 371.578C404.65 371.565 404.662 371.553 404.674 371.543C414.942 362.599 416.331 351.564 415.169 342.692C414.008 333.818 410.272 327.183 410.272 327.183C410.147 326.962 410.228 326.684 410.449 326.562L410.45 326.564Z" fill="#4D4D4D"/>
<path d="M277.23 172.397L463.086 226.923C464.29 227.278 464.976 228.542 464.622 229.744C464.27 230.946 463.012 231.637 461.808 231.287L275.943 176.761C274.74 176.406 274.052 175.142 274.409 173.94C274.576 173.361 274.969 172.872 275.498 172.583C276.028 172.293 276.65 172.226 277.23 172.397Z" fill="#333333"/>
<path d="M444.532 265.61C444.532 265.61 447.046 259.407 442.352 249.014C437.66 238.62 422.404 228.06 420.896 221.523C419.387 214.984 419.554 209.118 416.202 206.436C412.849 203.753 405.307 204.256 404.468 204.759C403.63 205.262 402.457 207.105 402.457 207.105C402.457 207.105 407.653 210.124 402.96 215.487C398.266 220.852 419.722 247.337 419.722 247.337L444.532 265.61Z" fill="#FFDBC1"/>
<path d="M313.38 155.127C313.38 175.749 305.189 195.527 290.606 210.11C276.024 224.693 256.245 232.885 235.622 232.885C215 232.885 195.223 224.693 180.64 210.11C166.058 195.527 157.866 175.749 157.866 155.127C157.866 134.505 166.058 114.725 180.64 100.144C195.223 85.5621 215 77.3692 235.622 77.3692C256.245 77.3692 276.024 85.5621 290.606 100.144C305.189 114.725 313.38 134.505 313.38 155.127Z" fill="#1A1A1A"/>
<path d="M204.251 153.446C204.251 163.798 212.643 172.19 222.995 172.19C233.347 172.19 241.738 163.798 241.738 153.446C241.738 143.094 233.347 134.704 222.995 134.704C212.643 134.704 204.251 143.094 204.251 153.446Z" fill="#333333"/>
<path d="M240.105 91.0843C239.732 91.0243 239.383 91.2781 239.325 91.6525C239.265 92.0215 239.515 92.369 239.884 92.4331C254.9 94.9149 268.924 103.09 278.476 114.941C288.028 126.79 293.051 142.235 292.289 157.436C291.598 171.259 286.164 184.811 277.119 195.284C268.073 205.759 255.454 213.107 241.879 215.805C241.504 215.875 241.261 216.24 241.339 216.613C241.413 216.982 241.775 217.222 242.146 217.145C256.026 214.387 268.899 206.89 278.148 196.18C287.398 185.47 292.939 171.64 293.647 157.508C294.426 141.961 289.31 126.208 279.54 114.088C269.771 101.969 255.463 93.6227 240.105 91.0843Z" fill="#999999"/>
<path d="M341.779 204.246C341.779 204.246 376.154 227.682 374.967 241.196C373.783 254.707 372.598 259.211 365.961 260.159C359.321 261.109 354.107 264.191 346.521 247.595C338.934 231.001 327.554 208.953 327.554 208.953C327.554 208.953 318.138 203.585 318.138 198.39C318.138 193.193 320.484 183.805 320.484 183.805L313.567 181.928C313.567 181.928 323.167 173.747 333.392 178.274C343.619 182.8 338.254 192.522 337.248 196.042C336.242 199.562 341.779 204.246 341.779 204.246Z" fill="#FFDBC1"/>
<path d="M336.538 199.216C336.538 199.216 342.058 203.889 353.669 212.861C365.346 221.881 372.025 231.697 372.025 231.697C372.164 231.905 372.11 232.185 371.901 232.327C371.693 232.466 371.41 232.41 371.271 232.201C371.271 232.201 364.676 222.508 353.12 213.581C341.498 204.6 335.952 199.908 335.952 199.908C335.761 199.745 335.738 199.46 335.899 199.269C336.062 199.079 336.347 199.055 336.538 199.216Z" fill="#FFA684"/>
<path d="M333.201 219.267C333.429 219.161 333.699 219.26 333.805 219.487L343.191 239.937C343.297 240.165 343.197 240.435 342.971 240.54C342.743 240.647 342.471 240.548 342.367 240.318L332.981 219.869C332.875 219.641 332.974 219.371 333.201 219.267Z" fill="#FFA684"/>
<path d="M404.886 215.141C405.006 215.122 405.126 215.15 405.223 215.22C405.223 215.22 410.419 218.974 414.14 226.656C415 228.431 417.203 230.877 420.013 233.462C422.824 236.046 426.236 238.792 429.541 241.305C436.15 246.331 442.308 250.416 442.308 250.416C442.516 250.555 442.572 250.838 442.433 251.046C442.295 251.257 442.013 251.317 441.803 251.179C441.803 251.179 435.637 247.08 429.001 242.033C425.682 239.508 422.246 236.744 419.401 234.127C416.555 231.511 414.302 229.064 413.325 227.047C409.697 219.558 404.692 215.957 404.692 215.957C404.489 215.812 404.441 215.531 404.584 215.327C404.656 215.228 404.765 215.16 404.886 215.141Z" fill="#FFA684"/>
<path d="M328.091 176.486C332.869 177.169 335.871 178.971 337.602 181.33C339.334 183.688 339.776 186.552 339.625 189.279C339.323 194.736 336.644 199.776 336.644 199.776C336.526 199.994 336.252 200.078 336.031 199.961C335.808 199.846 335.722 199.571 335.837 199.348C335.837 199.348 338.434 194.414 338.72 189.226C338.863 186.633 338.434 184.008 336.866 181.871C335.297 179.736 332.576 178.041 327.967 177.382C327.716 177.349 327.542 177.117 327.577 176.867C327.614 176.62 327.845 176.451 328.091 176.486Z" fill="#FFA684"/>
<path d="M364.441 448.898C367.811 448.149 370.052 449.749 371.332 451.496C372.614 453.246 373.036 455.161 373.036 455.161C373.096 455.406 372.946 455.654 372.7 455.71C372.454 455.765 372.212 455.61 372.158 455.364C372.158 455.364 371.747 453.608 370.597 452.038C369.447 450.469 367.666 449.111 364.635 449.784C358.514 451.145 355.231 458.062 355.231 458.062C355.125 458.289 354.855 458.39 354.627 458.284C354.4 458.178 354.3 457.908 354.406 457.681C354.406 457.681 357.759 450.383 364.441 448.898Z" fill="#FFA684"/>
<path d="M413.146 446.077C416.458 446.607 419.339 448.977 419.339 448.977C419.531 449.136 419.56 449.422 419.401 449.617C419.245 449.812 418.958 449.844 418.762 449.687C418.762 449.687 415.962 447.446 412.996 446.972C411.513 446.736 410.03 446.912 408.745 447.984C407.462 449.055 406.348 451.078 405.765 454.628C405.723 454.875 405.488 455.043 405.241 455.002C404.99 454.964 404.819 454.728 404.86 454.478C405.463 450.797 406.655 448.555 408.17 447.291C409.683 446.029 411.49 445.812 413.146 446.077Z" fill="#FFDBC1"/>
<path d="M238.027 74.9667C217.404 74.9667 197.627 83.1575 183.044 97.7395C168.462 112.323 160.269 132.1 160.269 152.723C160.269 173.345 168.461 193.124 183.044 207.705C197.626 222.289 217.404 230.48 238.027 230.48C253.214 230.47 268.066 226.01 280.748 217.655C293.43 209.302 303.388 197.415 309.393 183.466L318.316 186.085C319.036 187.976 319.892 190.102 320.819 192.232C320.651 193.585 320.542 194.882 320.542 195.986C320.542 201.182 329.96 206.55 329.96 206.55C329.96 206.55 332.186 210.881 335.268 217.013C332.7 225.206 329.722 235.688 328.451 243.909C328.446 243.941 328.44 243.976 328.437 244.008C328.352 244.553 328.276 245.088 328.209 245.612C328.2 245.687 328.191 245.759 328.182 245.835C328.122 246.298 328.071 246.756 328.027 247.198C327.981 247.639 327.944 248.068 327.914 248.487C327.909 248.571 327.9 248.656 327.895 248.739C327.863 249.209 327.844 249.662 327.833 250.102C327.831 250.13 327.831 250.158 327.829 250.186C327.82 250.633 327.82 251.064 327.835 251.475C327.835 251.512 327.835 251.546 327.836 251.581C327.851 252.012 327.877 252.423 327.92 252.812V252.814C328.213 255.599 328.811 257.792 329.566 259.518V259.52C329.674 259.765 329.787 260.002 329.9 260.229C329.941 260.309 329.981 260.38 330.022 260.456C330.215 260.822 330.407 261.171 330.612 261.49L330.613 261.492C331.353 262.646 332.161 263.499 332.947 264.128H332.949C335.044 265.803 336.97 265.887 336.97 265.887C336.97 265.887 337.246 266.814 337.673 268.212C337.8 268.631 337.821 268.712 337.983 269.24C338.199 269.933 338.441 270.704 338.704 271.539C340.589 277.477 343.647 286.472 346.025 290.362C344.307 299.261 349.162 339.78 349.162 339.78C345.843 347.841 340.39 377.474 340.39 377.474C336.1 391.5 346.191 458.328 347.866 471.404C349.132 481.272 349.441 530.962 349.517 554.789C349.776 554.848 350.041 554.914 350.299 554.968C350.957 555.105 351.607 555.228 352.249 555.336C352.89 555.444 353.524 555.537 354.149 555.618C354.772 555.699 355.386 555.767 355.993 555.822C356.599 555.877 357.197 555.919 357.783 555.951C358.372 555.979 358.949 556.003 359.517 556.012C360.086 556.021 360.644 556.017 361.193 556.01C361.742 556.001 362.282 555.978 362.81 555.949C363.339 555.921 363.858 555.882 364.367 555.836C364.875 555.79 365.371 555.737 365.86 555.677C366.347 555.616 366.824 555.548 367.288 555.475C367.754 555.401 368.211 555.323 368.655 555.238C369.099 555.153 369.532 555.062 369.954 554.968C370.374 554.874 370.783 554.774 371.184 554.673C371.581 554.57 371.969 554.466 372.346 554.357C372.72 554.25 373.084 554.141 373.437 554.028C373.788 553.917 374.129 553.802 374.455 553.689C374.711 553.6 374.923 553.51 375.165 553.421C376.148 538.476 378.132 521.541 380.556 510.964C384.244 494.872 379.55 462.351 378.879 455.982C378.607 453.391 381.928 440.993 385.949 427.223C390.854 441.563 399.896 462.817 399.896 462.817C399.896 462.817 400.605 475.145 406.531 498.141C410.305 512.782 411.192 529.893 411.342 540.414C411.619 540.437 411.898 540.466 412.183 540.484C411.896 540.466 411.621 540.437 411.342 540.414C411.36 541.79 411.369 543.048 411.369 544.179C405.096 546.549 400.642 556.711 395.393 560.017C388.991 564.047 377.612 567.839 379.982 573.291C382.353 578.744 404.637 577.796 414.119 580.878C423.602 583.96 442.33 579.692 441.383 577.558C440.435 575.425 437.114 559.305 436.878 555.75C436.746 553.76 433.568 551.177 430.796 549.287C430.948 546.575 431.145 542.928 431.356 538.672C430.519 538.833 429.673 538.993 428.79 539.145C427.71 539.331 426.603 539.508 425.48 539.67C424.921 539.751 424.358 539.83 423.793 539.902C423.228 539.975 422.659 540.044 422.095 540.107C421.528 540.17 420.962 540.227 420.396 540.278C419.885 540.325 419.376 540.37 418.869 540.405C419.376 540.369 419.885 540.325 420.396 540.278C420.962 540.227 421.528 540.17 422.095 540.107C422.659 540.044 423.228 539.975 423.793 539.902C424.358 539.829 424.921 539.752 425.48 539.67C426.603 539.507 427.71 539.331 428.79 539.145C429.673 538.992 430.519 538.833 431.356 538.672C432.164 522.499 433.169 497.825 432.522 485.147C431.578 466.555 422.737 449.352 421.666 447.326C421.72 447.298 421.768 447.26 421.807 447.212C421.966 447.02 421.939 446.733 421.747 446.575C421.747 446.575 421.657 446.5 421.505 446.386L426.824 385.911C426.489 380.548 429.17 376.86 431.852 358.085C434.533 339.311 426.319 322.212 416.095 309.472C405.869 296.733 404.36 284.999 404.36 284.999C404.36 284.999 399.685 272.654 399.477 257.126C399.451 255.249 399.495 253.325 399.614 251.373C399.622 251.235 399.633 251.097 399.641 250.96C399.665 250.607 399.694 250.254 399.722 249.899C399.746 249.65 399.763 249.401 399.786 249.152C399.814 248.871 399.841 248.587 399.871 248.304C399.918 247.865 399.97 247.424 400.027 246.98C400.04 246.86 400.053 246.74 400.072 246.621C400.153 246.003 400.24 245.387 400.339 244.767C400.339 244.767 438.896 277.286 445.602 272.592C446.315 272.092 446.945 271.489 447.498 270.809C453.569 273.256 460.053 274.516 466.599 274.52C494.877 274.52 517.803 251.594 517.804 223.315C517.804 209.734 512.409 196.709 502.806 187.106C493.202 177.502 480.18 172.108 466.599 172.108C445.623 172.111 426.769 184.906 419.021 204.397C418.891 204.27 418.755 204.148 418.612 204.034C415.259 201.352 407.716 201.853 406.879 202.355C406.04 202.858 404.867 204.703 404.867 204.703C404.867 204.703 406.47 205.635 407.089 207.383L377.174 198.607C376.69 181.378 379.134 156.257 368.826 152.906C363.235 151.09 359.567 152.768 357.19 155.346C352.878 147.765 345.245 142.745 331.152 143.728C310.764 145.151 315.977 179.524 315.977 179.524C315.977 179.524 316.127 179.985 316.401 180.777L311.085 179.219C314.182 170.727 315.774 161.761 315.79 152.723C315.79 132.101 307.597 112.323 293.015 97.7415C278.434 83.1596 258.655 74.9667 238.034 74.9667H238.027ZM375.162 553.42C374.922 553.509 374.71 553.599 374.453 553.688C374.125 553.802 373.787 553.917 373.435 554.028C373.084 554.14 372.718 554.249 372.344 554.357C371.968 554.465 371.58 554.57 371.181 554.672C370.783 554.774 370.372 554.873 369.95 554.968C369.53 555.061 369.097 555.152 368.653 555.237C368.208 555.322 367.753 555.401 367.288 555.475C366.82 555.548 366.345 555.615 365.858 555.677C365.371 555.737 364.873 555.79 364.365 555.836C363.857 555.881 363.337 555.921 362.808 555.948C362.28 555.976 361.74 556 361.191 556.009C360.642 556.023 360.084 556.023 359.516 556.012C358.947 556.003 358.37 555.984 357.783 555.951C357.196 555.919 356.597 555.877 355.992 555.821C355.386 555.766 354.77 555.698 354.147 555.617C353.522 555.537 352.89 555.443 352.247 555.336C351.605 555.228 350.955 555.105 350.297 554.967C350.039 554.914 349.776 554.847 349.515 554.789H349.513C349.53 559.719 349.536 562.919 349.539 565.07C345.642 566.048 340.132 568.675 335.886 575.661C328.535 587.752 303.644 588.228 302.933 596.288C302.222 604.348 315.972 608.139 335.886 609.088C355.799 610.036 382.115 605.296 384.011 601.029C385.907 596.762 374.521 573.995 374.521 573.995V573.993C374.406 568.477 374.651 561.214 375.164 553.42H375.162ZM378.916 203.862L387.024 206.239C384.837 205.834 383.079 205.568 382.113 205.365C381.984 205.337 381.855 205.305 381.728 205.27C381.691 205.261 381.653 205.248 381.615 205.238C381.533 205.214 381.451 205.188 381.372 205.16C381.312 205.142 381.254 205.119 381.195 205.1C381.138 205.077 381.079 205.059 381.021 205.034C380.959 205.012 380.895 204.986 380.833 204.959H380.832C380.68 204.895 380.533 204.823 380.385 204.75C380.23 204.672 380.076 204.588 379.922 204.501C379.822 204.444 379.718 204.388 379.617 204.327C379.379 204.182 379.144 204.026 378.916 203.862ZM401.85 210.588L406.272 211.888C406.118 212.124 405.949 212.366 405.753 212.615C404.498 211.861 403.186 211.19 401.85 210.588ZM418.423 540.433C418.057 540.455 417.696 540.478 417.335 540.493C417.696 540.475 418.057 540.457 418.423 540.433ZM412.493 540.503C412.934 540.526 413.381 540.544 413.838 540.553C414.357 540.566 414.884 540.566 415.42 540.555C414.884 540.56 414.357 540.56 413.838 540.553C413.381 540.544 412.934 540.525 412.493 540.503Z" fill="white"/>
<path d="M424.279 549.144C424.279 549.144 434.235 554.597 434.471 558.152C434.71 561.708 438.027 577.829 438.976 579.962C439.924 582.096 421.196 586.364 411.714 583.281C402.231 580.2 379.947 581.148 377.576 575.695C375.206 570.243 386.585 566.45 392.986 562.42C399.385 558.389 404.602 544.165 413.372 546.299C422.144 548.433 424.279 549.144 424.279 549.144Z" fill="#FF6262"/>
<path d="M372.114 576.398C372.114 576.398 383.503 599.165 381.605 603.432C379.709 607.699 353.395 612.441 333.482 611.492C313.567 610.544 299.817 606.751 300.529 598.691C301.24 590.631 326.133 590.156 333.482 578.066C340.831 565.976 351.974 566.924 351.974 566.924L372.114 576.398Z" fill="#FF6262" fill-opacity="0.75"/>
<path d="M408.936 542.819C409.257 542.846 409.575 542.879 409.905 542.898C410.405 542.926 410.915 542.947 411.434 542.957C411.953 542.966 412.48 542.966 413.016 542.959C413.552 542.95 414.096 542.937 414.645 542.912C415.194 542.89 415.748 542.857 416.306 542.819C416.864 542.782 417.425 542.734 417.99 542.682C418.555 542.631 419.12 542.574 419.687 542.511C420.253 542.448 420.822 542.379 421.387 542.306C421.952 542.234 422.513 542.155 423.075 542.074C424.196 541.911 425.304 541.734 426.385 541.548C427.265 541.397 428.113 541.237 428.95 541.076C428.497 550.139 428.104 556.616 428.104 556.616C428.104 556.616 419.774 561.944 415.27 561.233C410.765 560.522 408.867 552.7 408.867 552.7C408.867 552.7 409.021 548.821 408.936 542.818V542.819Z" fill="white"/>
<path d="M392.749 369.922C392.749 369.922 421.473 374.231 424.418 388.315L419.051 449.332C419.051 449.332 429.11 467.773 430.117 487.552C430.761 500.229 429.757 524.903 428.95 541.077C428.113 541.237 427.265 541.396 426.384 541.548C425.304 541.735 424.196 541.912 423.074 542.074C422.513 542.155 421.952 542.234 421.387 542.307C420.822 542.379 420.253 542.448 419.687 542.511C419.12 542.575 418.555 542.631 417.99 542.682C417.425 542.734 416.864 542.78 416.306 542.819C415.748 542.855 415.194 542.889 414.645 542.912C414.096 542.935 413.552 542.954 413.016 542.959C412.48 542.968 411.953 542.968 411.434 542.957C410.915 542.948 410.405 542.93 409.905 542.899C409.575 542.88 409.257 542.847 408.936 542.819C408.788 532.297 407.9 515.186 404.125 500.545C398.199 477.549 397.49 465.222 397.49 465.222C397.49 465.222 382.555 430.137 380.657 419.706C378.761 409.277 378.525 384.383 378.525 384.383L392.749 369.922Z" fill="#FFA684"/>
<path d="M347.112 557.194C347.371 557.252 347.636 557.318 347.893 557.372C348.553 557.509 349.202 557.632 349.843 557.74C350.486 557.849 351.119 557.941 351.743 558.022C352.367 558.103 352.982 558.171 353.587 558.227C354.193 558.282 354.791 558.324 355.38 558.356C355.967 558.387 356.543 558.407 357.111 558.416C357.679 558.425 358.239 558.425 358.788 558.414C359.336 558.405 359.876 558.382 360.405 558.353C360.933 558.326 361.452 558.286 361.96 558.24C362.469 558.194 362.966 558.141 363.454 558.081C363.941 558.02 364.418 557.953 364.884 557.879C365.35 557.805 365.805 557.727 366.25 557.642C366.694 557.557 367.126 557.466 367.548 557.372C367.97 557.277 368.379 557.178 368.778 557.076C369.175 556.974 369.564 556.87 369.939 556.761C370.69 556.546 371.394 556.321 372.05 556.092C372.305 556.003 372.517 555.914 372.759 555.825C372.245 563.619 372 570.881 372.116 576.397C372.116 576.397 359.208 586.791 352.503 584.108C345.797 581.426 347.137 570.029 347.137 570.029C347.137 570.029 347.137 564.938 347.111 557.194H347.112Z" fill="white"/>
<path d="M376.72 357.508C386.338 357.508 394.558 364.545 396.78 386.516C396.78 386.516 375.804 452.017 376.475 458.387C377.144 464.756 381.838 497.276 378.15 513.369C375.726 523.945 373.742 540.88 372.759 555.825C372.517 555.914 372.305 556.003 372.05 556.092C371.394 556.321 370.69 556.546 369.939 556.761C369.564 556.869 369.177 556.974 368.778 557.076C368.379 557.178 367.97 557.278 367.548 557.372C367.126 557.466 366.694 557.557 366.25 557.642C365.805 557.727 365.35 557.805 364.884 557.879C364.418 557.952 363.941 558.02 363.454 558.081C362.966 558.142 362.469 558.195 361.96 558.24C361.452 558.287 360.933 558.324 360.405 558.353C359.876 558.38 359.336 558.404 358.788 558.414C358.239 558.423 357.679 558.427 357.111 558.416C356.543 558.407 355.967 558.385 355.38 558.356C354.791 558.324 354.193 558.282 353.587 558.227C352.982 558.171 352.367 558.103 351.743 558.022C351.119 557.941 350.486 557.849 349.843 557.741C349.202 557.632 348.553 557.509 347.893 557.372C347.636 557.318 347.371 557.252 347.112 557.194C347.034 533.366 346.725 483.677 345.462 473.809C343.785 460.733 333.694 393.904 337.986 379.878C337.986 379.878 359.577 357.512 376.72 357.508Z" fill="#FFDBC1"/>
<path d="M401.954 287.402C401.954 287.402 403.461 299.136 413.688 311.876C423.913 324.617 432.127 341.714 429.446 360.488C426.764 379.263 424.081 382.95 424.416 388.315C424.416 388.315 405.55 384.145 396.778 386.516C396.778 386.516 357.662 374.664 337.985 379.878C337.985 379.878 343.439 350.246 346.758 342.185C346.758 342.185 341.901 301.664 343.619 292.765C345.334 283.868 348.653 272.725 348.653 272.725L389.666 272.013L401.954 287.402Z" fill="#3836B9"/>
<path d="M515.393 225.717C515.393 253.998 492.468 276.924 464.188 276.924C435.907 276.924 412.98 253.998 412.98 225.717C412.98 197.437 435.907 174.51 464.188 174.51C492.468 174.51 515.393 197.437 515.393 225.717Z" fill="#1A1A1A"/>
<path d="M446.619 228.227C446.619 235.591 452.587 241.56 459.951 241.56C467.314 241.56 473.282 235.591 473.282 228.227C473.282 220.865 467.314 214.896 459.951 214.896C452.587 214.896 446.619 220.865 446.619 228.227Z" fill="#333333"/>
<path d="M475.017 189.727C474.78 189.653 474.527 189.784 474.449 190.02C474.375 190.257 474.506 190.511 474.742 190.587C482.806 193.156 489.975 198.48 494.766 205.457C499.558 212.433 501.953 221.034 501.455 229.483C500.973 237.661 497.783 245.671 492.512 251.945C487.242 258.221 479.904 262.745 471.93 264.632C471.688 264.69 471.538 264.932 471.593 265.174C471.651 265.42 471.898 265.572 472.142 265.512C480.312 263.577 487.815 258.959 493.213 252.531C498.613 246.103 501.866 237.916 502.361 229.535C502.871 220.88 500.428 212.089 495.52 204.943C490.612 197.795 483.278 192.358 475.017 189.727Z" fill="#999999"/>
<path d="M313.567 181.928C313.567 181.928 323.167 211.297 328.532 206.938C333.895 202.581 336.242 199.562 336.242 199.562L337.248 206.269C337.248 206.269 324.172 242.475 325.514 255.216C326.855 267.956 334.566 268.292 334.566 268.292C334.566 268.292 339.931 286.731 343.619 292.765C343.619 292.765 348.982 269.298 401.954 287.402C401.954 287.402 394.577 267.956 397.931 247.169C397.931 247.169 436.486 279.691 443.19 274.997C449.895 270.303 449.561 256.893 440.174 249.851C430.786 242.811 418.589 236.454 411.951 223.652C405.312 210.85 384.215 208.717 379.709 207.769C375.206 206.821 371.649 200.893 371.649 200.893L359.085 171.022C359.085 171.022 316.888 172.445 313.567 181.928Z" fill="#FFDBC1"/>
<path d="M341.779 204.246C341.779 204.246 359.233 215.881 373.693 217.066C386.278 218.097 378.145 212.892 377.215 206.731C377.999 207.212 378.835 207.584 379.709 207.769C380.722 207.981 382.604 208.263 384.943 208.704C391.016 223.756 397.929 247.168 397.929 247.168C397.248 251.396 397.017 255.566 397.071 259.53C375.615 248.679 348.575 265.014 336.299 273.942C335.262 270.672 334.564 268.293 334.564 268.293C334.564 268.293 326.855 267.955 325.514 255.216C325.19 252.139 325.713 247.687 326.682 242.714C358.934 252.767 337.248 206.269 337.248 206.269L341.779 204.246Z" fill="#1A1A1A"/>
<path d="M313.567 181.928C313.567 181.928 308.353 147.554 328.74 146.131C349.128 144.71 356.002 155.851 358.848 169.126C361.692 182.403 361.722 187.157 361.722 187.157C354.082 185.099 345.823 185.106 336.841 187.517L313.567 181.928Z" fill="#493022"/>
<path d="M355.515 201.665C359.574 202.004 363.321 202.809 363.321 202.809C363.567 202.858 363.726 203.096 363.677 203.342C363.627 203.591 363.384 203.75 363.136 203.697C363.136 203.697 359.431 202.902 355.444 202.569C353.45 202.402 351.386 202.357 349.713 202.569C348.039 202.782 346.803 203.285 346.349 203.998C346.216 204.212 345.933 204.275 345.719 204.139C345.506 204.006 345.442 203.723 345.578 203.509C346.298 202.38 347.815 201.891 349.598 201.665C351.379 201.437 353.485 201.495 355.515 201.665Z" fill="#FFA684"/>
<path d="M350.659 166.707C350.659 166.707 353.005 150.95 366.416 155.309C379.825 159.667 371.649 200.893 376.422 213.621C376.422 213.621 375.133 216.661 366.751 200.233C366.751 200.233 367.085 203.921 371.445 210.961C371.445 210.961 374.477 217.231 361.722 198.893C361.722 198.893 354.011 187.828 350.659 166.707Z" fill="#493022"/>
<path d="M410.45 326.564C410.67 326.438 410.948 326.52 411.07 326.74C411.07 326.74 414.88 333.514 416.066 342.577C417.25 351.641 415.786 363.066 405.267 372.226L405.305 372.199C405.305 372.199 403.152 374.507 401.064 377.469C398.976 380.433 397.014 384.082 397.232 386.476C397.257 386.725 397.073 386.947 396.824 386.971C396.57 386.996 396.346 386.807 396.326 386.554C396.061 383.626 398.199 379.969 400.328 376.946C402.457 373.924 404.639 371.578 404.639 371.578C404.652 371.565 404.662 371.553 404.676 371.543C414.944 362.599 416.332 351.564 415.171 342.692C414.009 333.818 410.274 327.183 410.274 327.183C410.15 326.962 410.23 326.684 410.452 326.562L410.45 326.564Z" fill="#4D4D4D"/>
<path d="M277.23 172.397L463.086 226.923C464.29 227.278 464.976 228.542 464.622 229.744C464.27 230.946 463.012 231.637 461.809 231.287L275.943 176.761C274.74 176.406 274.052 175.142 274.409 173.94C274.576 173.361 274.969 172.872 275.498 172.583C276.028 172.293 276.65 172.226 277.23 172.397Z" fill="#333333"/>
<path d="M444.532 265.61C444.532 265.61 447.046 259.407 442.352 249.014C437.66 238.62 422.404 228.06 420.896 221.523C419.387 214.984 419.554 209.118 416.202 206.436C412.849 203.753 405.307 204.256 404.468 204.759C403.63 205.262 402.457 207.105 402.457 207.105C402.457 207.105 407.653 210.124 402.96 215.487C398.266 220.852 419.722 247.337 419.722 247.337L444.532 265.61Z" fill="#FFDBC1"/>
<path d="M415.237 206.115C411.9 206.141 407.319 207.987 404.473 209.298C405.116 210.59 405.266 212.428 403.546 214.753C405.07 215.914 410.326 220.105 412.472 224.176C415.671 223.24 419.692 222.398 421.067 222.12C420.998 221.916 420.94 221.719 420.896 221.523C419.387 214.986 419.554 209.12 416.202 206.436C416.066 206.329 415.923 206.225 415.775 206.127C415.598 206.116 415.42 206.113 415.237 206.115Z" fill="#1A1A1A"/>
<path d="M313.38 155.127C313.38 175.749 305.189 195.527 290.606 210.11C276.024 224.693 256.245 232.885 235.622 232.885C215 232.885 195.223 224.693 180.64 210.11C166.058 195.527 157.866 175.749 157.866 155.127C157.866 134.505 166.058 114.725 180.64 100.144C195.223 85.5621 215 77.3692 235.622 77.3692C256.245 77.3692 276.024 85.5621 290.606 100.144C305.189 114.725 313.38 134.505 313.38 155.127Z" fill="#1A1A1A"/>
<path d="M204.251 153.446C204.251 163.798 212.643 172.19 222.995 172.19C233.347 172.19 241.738 163.798 241.738 153.446C241.738 143.094 233.347 134.704 222.995 134.704C212.643 134.704 204.251 143.094 204.251 153.446Z" fill="#333333"/>
<path d="M240.105 91.0843C239.732 91.0243 239.383 91.2781 239.325 91.6525C239.265 92.0215 239.515 92.369 239.884 92.4331C254.9 94.9149 268.924 103.09 278.476 114.941C288.028 126.79 293.051 142.235 292.289 157.436C291.598 171.259 286.164 184.811 277.119 195.284C268.073 205.759 255.454 213.107 241.879 215.805C241.504 215.875 241.261 216.24 241.339 216.613C241.413 216.982 241.775 217.222 242.146 217.145C256.026 214.387 268.899 206.89 278.148 196.18C287.398 185.47 292.939 171.64 293.647 157.508C294.426 141.961 289.31 126.208 279.54 114.088C269.771 101.969 255.463 93.6227 240.105 91.0843Z" fill="#999999"/>
<path d="M341.779 204.246C341.779 204.246 376.154 227.682 374.967 241.196C373.783 254.707 372.598 259.211 365.961 260.159C359.321 261.109 354.107 264.191 346.521 247.595C338.934 231.001 327.554 208.953 327.554 208.953C327.554 208.953 318.138 203.585 318.138 198.39C318.138 193.193 320.484 183.805 320.484 183.805L313.567 181.928C313.567 181.928 323.167 173.747 333.392 178.274C343.619 182.8 338.254 192.522 337.248 196.042C336.242 199.562 341.779 204.246 341.779 204.246Z" fill="#FFDBC1"/>
<path d="M336.538 199.216C336.538 199.216 342.058 203.889 353.669 212.861C365.346 221.881 372.025 231.697 372.025 231.697C372.164 231.905 372.109 232.185 371.901 232.327C371.693 232.466 371.41 232.41 371.271 232.201C371.271 232.201 364.676 222.508 353.12 213.581C341.498 204.6 335.953 199.908 335.953 199.908C335.761 199.745 335.738 199.46 335.899 199.269C336.061 199.079 336.347 199.055 336.538 199.216Z" fill="#FFA684"/>
<path d="M333.201 219.267C333.429 219.161 333.699 219.26 333.805 219.487L343.191 239.937C343.297 240.165 343.199 240.435 342.971 240.54C342.743 240.647 342.471 240.548 342.367 240.318L332.981 219.869C332.875 219.641 332.974 219.371 333.201 219.267Z" fill="#FFA684"/>
<path d="M404.886 215.141C405.006 215.122 405.126 215.15 405.223 215.22C405.223 215.22 410.419 218.974 414.14 226.656C415 228.431 417.203 230.877 420.013 233.462C422.824 236.046 426.236 238.792 429.541 241.305C436.15 246.331 442.308 250.416 442.308 250.416C442.516 250.555 442.572 250.838 442.433 251.046C442.295 251.257 442.013 251.317 441.803 251.179C441.803 251.179 435.637 247.08 429.001 242.033C425.682 239.508 422.246 236.744 419.401 234.127C416.555 231.511 414.301 229.064 413.325 227.047C409.697 219.558 404.69 215.957 404.69 215.957C404.489 215.812 404.441 215.531 404.584 215.327C404.655 215.228 404.765 215.16 404.886 215.141Z" fill="#FFA684"/>
<path d="M364.441 448.898C367.811 448.149 370.052 449.749 371.332 451.496C372.614 453.246 373.036 455.161 373.036 455.161C373.096 455.406 372.946 455.654 372.7 455.71C372.454 455.765 372.212 455.61 372.158 455.364C372.158 455.364 371.745 453.608 370.597 452.038C369.447 450.469 367.666 449.111 364.635 449.784C358.514 451.145 355.231 458.062 355.231 458.062C355.125 458.289 354.855 458.39 354.627 458.284C354.4 458.178 354.3 457.908 354.406 457.681C354.406 457.681 357.759 450.383 364.441 448.898Z" fill="#FFA684"/>
<path d="M413.146 446.077C416.458 446.607 419.339 448.977 419.339 448.977C419.531 449.136 419.56 449.422 419.401 449.617C419.245 449.812 418.958 449.844 418.762 449.687C418.762 449.687 415.962 447.446 412.996 446.972C411.513 446.736 410.03 446.912 408.747 447.984C407.462 449.055 406.348 451.078 405.765 454.628C405.723 454.875 405.488 455.043 405.243 455.002C404.99 454.964 404.819 454.728 404.86 454.478C405.463 450.797 406.655 448.555 408.17 447.291C409.683 446.029 411.49 445.812 413.146 446.077Z" fill="#FFDBC1"/>
<path d="M331.609 178.177C324.302 178.186 320.486 183.805 320.486 183.805C320.486 183.805 318.138 193.193 318.138 198.39C318.138 203.587 327.556 208.953 327.556 208.953C327.898 202.491 336.243 199.564 336.243 199.564C336.243 199.564 336.69 199.096 337.355 198.307C337.115 197.537 337.041 196.766 337.248 196.042C338.252 192.525 343.608 182.82 333.422 178.286C332.796 178.21 332.192 178.177 331.609 178.177Z" fill="#1A1A1A"/>
</svg>
