<svg width="740" height="696" viewBox="0 0 740 696" fill="none" xmlns="http://www.w3.org/2000/svg">
<g clip-path="url(#clip0_183_33)">
<path d="M182.034 181.704C182.034 212.51 174.394 242.052 160.794 263.834C147.194 285.618 128.75 297.855 109.517 297.855C90.2846 297.855 71.8394 285.618 58.2395 263.834C44.6405 242.052 37 212.51 37 181.704C37 150.899 44.6405 121.355 58.2395 99.5741C71.8394 77.7902 90.2846 65.5523 109.517 65.5523C128.75 65.5523 147.194 77.7902 160.794 99.5741C174.394 121.355 182.034 150.899 182.034 181.704Z" fill="#1E1E1E"/>
<path d="M268.894 652.262C245.708 647.876 222.519 642.855 200.525 634.301C178.531 625.746 157.648 613.48 141.535 596.231C125.422 578.981 114.356 556.439 113.442 532.846C112.986 521.05 115.07 509.12 119.848 498.326C124.625 487.532 132.122 477.905 141.641 470.931C151.811 463.477 163.941 459.21 176.075 455.792C188.211 452.376 200.601 449.691 212.277 444.939C223.953 440.184 235.081 433.113 242.223 422.72C245.794 417.523 248.299 411.546 249.147 405.297C249.996 399.048 249.147 392.528 246.408 386.848C242.527 378.802 235.154 372.918 227.219 368.817C219.287 364.716 210.667 362.151 202.334 358.938C161.742 343.293 127.699 311.346 109.458 271.833C91.2166 232.32 88.975 185.691 103.303 144.594C117.632 103.498 148.361 68.3914 187.169 48.7277C225.976 29.0625 272.426 25.0503 314.042 37.7301C346.581 47.6441 375.535 67.1142 400.792 89.9093C426.049 112.704 447.971 138.89 470.287 164.576C538.033 242.546 610.778 317.471 662.847 406.691C679.569 435.345 694.199 465.769 700.216 498.401C706.232 531.032 702.965 566.289 685.834 594.701C670.801 619.633 646.103 637.707 619.24 648.905C592.377 660.103 563.296 664.921 534.341 667.848C445.849 676.793 356.289 668.798 268.894 652.262Z" fill="#FDB8AF"/>
<path d="M399.067 574.48L319.964 579.586C319.964 579.586 284.746 645.976 268.585 696H365.969C389.652 668.57 407.572 634.902 407.572 634.902L399.067 574.48Z" fill="#FFA684"/>
<path d="M353.138 470.652C335.632 508.254 326.178 544.244 319.966 579.585C319.966 579.585 371.849 617.882 419.479 611.925C467.11 605.967 353.138 470.652 353.138 470.652Z" fill="#0E0C63"/>
<path d="M387.16 615.329C387.16 615.329 379.062 654.83 375.117 696H483.307C500.621 662.733 511.062 633.201 507.936 633.201L387.16 615.329Z" fill="#FFDBC1"/>
<path d="M353.138 470.652L334.424 495.333C334.424 495.333 360.792 536.182 365.895 541.289C370.998 546.395 384.607 564.267 384.607 564.267L387.158 615.328C387.158 615.328 413.526 639.158 439.043 643.413C464.558 647.668 507.936 633.2 507.936 633.2C507.936 633.2 542.809 548.097 513.89 511.503C484.972 474.909 448.94 452.58 448.94 452.58L353.138 470.652Z" fill="#3836B9"/>
<path d="M301.066 439.82C301.066 439.82 334.989 496.758 340.686 501.985C346.383 507.211 384.97 507.491 388.532 505.867C409.83 496.162 448.94 452.58 448.94 452.58C448.94 452.58 439.446 447.697 429.948 422.175L420.448 396.653L376.77 383.22L301.066 439.82Z" fill="#FFDBC1"/>
<path d="M274.062 213.726C274.062 213.726 205.607 240.984 265.68 291.307C325.752 341.628 274.062 213.726 274.062 213.726Z" fill="#FE8163"/>
<path d="M193.327 171.712L262.83 278.54L274.062 213.726L193.327 171.712Z" fill="#FE8163"/>
<path d="M256.823 103.596C256.823 103.596 248.379 58.8098 293.97 97.612C365.937 158.86 399.428 311.571 415.616 327.768C431.805 343.964 451.126 352.845 451.126 352.845L422.404 347.098L434.937 358.072C434.937 358.072 403.606 354.413 388.986 336.128C374.363 317.84 276.144 146.961 276.144 146.961L256.823 103.596Z" fill="#714830"/>
<path d="M102.517 296.668L137.681 301.881L151.332 70.3288L116.392 66.0891L102.517 296.668Z" fill="#1E1E1E"/>
<path d="M215.604 185.585C215.604 216.388 207.964 245.932 194.364 267.714C180.765 289.496 162.32 301.734 143.087 301.734C123.854 301.734 105.409 289.496 91.8101 267.714C78.2103 245.932 70.5698 216.388 70.5698 185.585C70.5698 154.778 78.2103 125.234 91.8101 103.452C105.409 81.6697 123.854 69.4342 143.087 69.4342C162.32 69.4342 180.765 81.6697 194.364 103.452C207.964 125.234 215.604 154.778 215.604 185.585Z" fill="#2F2F2F"/>
<path d="M203.514 185.585C203.514 211.254 197.148 235.872 185.816 254.023C174.484 272.174 159.114 282.371 143.087 282.371C127.06 282.371 111.691 272.174 100.358 254.023C89.0259 235.872 82.6595 211.254 82.6595 185.585C82.6595 159.914 89.0259 135.297 100.358 117.145C111.691 98.9941 127.06 88.7955 143.087 88.7955C159.114 88.7955 174.484 98.9941 185.816 117.145C197.148 135.297 203.514 159.914 203.514 185.585Z" fill="#1E1E1E"/>
<path d="M168.985 180.034C168.985 202.944 157.39 221.514 143.087 221.514C128.784 221.514 117.189 202.944 117.189 180.034C117.189 157.124 128.784 138.552 143.087 138.552C157.39 138.552 168.985 157.124 168.985 180.034Z" fill="#2F2F2F"/>
<path d="M153.269 167.601C146.953 166.482 140.926 170.693 139.804 177.013C139.264 180.05 139.953 183.175 141.719 185.705C143.484 188.232 146.182 189.955 149.217 190.493L612.132 272.625C618.45 273.742 624.479 269.526 625.598 263.204C626.717 256.886 622.506 250.854 616.191 249.731L153.269 167.601Z" fill="#CCCCCC"/>
<path d="M341.254 224.574C341.254 224.574 386.762 228.714 400.944 236.993C415.128 245.271 422.949 250.275 422.949 250.275L479.461 263.285L484.276 322.146L412.766 302.63L412.174 322.146L368.439 345.208L341.254 301.448L333.57 267.742L341.254 224.574Z" fill="#FFDBC1"/>
<path d="M324.663 220.065L341.254 224.574C341.254 224.574 335.935 278.386 351.3 296.717C366.667 315.048 374.941 318.006 389.124 321.554C403.308 325.102 412.174 322.146 412.174 322.146C413.909 336.572 415.317 351.325 413.946 368.86L420.448 396.653C383.531 431.35 345.852 444.491 301.066 439.82L288.065 409.663C288.065 409.663 245.512 399.018 243.738 368.86C241.966 338.702 249.059 313.866 249.059 306.179C249.059 298.49 251.833 236.281 251.833 236.281L265.597 245.261L324.663 220.065Z" fill="#1E1E1E"/>
<path d="M238.124 223.729L265.597 245.261L259.644 250.299C259.644 250.299 251.6 295.383 271.746 306.377C291.894 317.372 311.161 300.226 317.746 279.214C328.538 244.777 324.663 220.065 324.663 220.065L310.926 213.649L281.362 179.23L252.375 174.934L238.124 223.729Z" fill="#FFDBC1"/>
<path d="M294.739 194.803L281.362 179.228L252.375 174.934L238.124 223.729L265.597 245.261C284.333 247.444 291.803 219.976 294.739 194.803Z" fill="#FFA684"/>
<path d="M215.76 166.11C215.76 166.11 179.952 156.836 171.169 162.864C162.385 168.892 162.385 179.556 162.385 179.556C162.385 179.556 181.506 202.172 204.275 190.684C227.044 179.197 215.76 166.11 215.76 166.11Z" fill="#FFA684"/>
<path d="M193.327 171.712C193.327 171.712 173.454 160.429 176.687 138.947C179.919 117.473 222.913 70.2618 257.206 93.2936C299.639 121.795 281.362 179.23 281.362 179.23L252.375 174.934L193.327 171.712Z" fill="#714830"/>
<path d="M184.587 153.234C182.316 154.369 188.026 187.225 197.299 201.177C206.551 215.097 231.524 241.29 231.524 241.29C231.524 241.29 272.592 209.004 272.592 201.177C272.592 193.35 268.806 181.306 268.806 181.306C275.45 184.885 279.325 159.593 272.687 153.138C259.639 140.448 255.969 153.236 255.969 153.236C255.969 153.236 230.488 123.973 215.974 134.588C179.623 161.174 184.587 153.236 184.587 153.236V153.234Z" fill="#FFDBC1"/>
<path d="M201.379 139.485C205.57 173.303 213.929 186.266 222.314 199.104C222.314 199.104 193.865 183.527 201.379 139.485Z" fill="#714830"/>
<path d="M184.587 153.234C175.169 182.769 178.951 208.417 193.865 230.791L175.076 217.363C175.076 217.363 167.793 166.983 184.587 153.234Z" fill="#714830"/>
<path d="M210.505 130.354C213.394 147.742 219.346 157.474 224.998 167.95C224.998 167.95 208.359 147.542 210.505 130.354Z" fill="#714830"/>
<path d="M470.826 211.477C470.826 211.477 443.884 200.073 435.596 202.146C427.305 204.219 425.233 197.997 420.052 201.11C414.872 204.219 407.617 217.699 408.653 223.919C409.689 230.14 426.269 232.213 426.269 232.213C426.269 232.213 451.138 248.801 462.535 241.545C473.935 234.286 470.826 211.477 470.826 211.477Z" fill="#FFDBC1"/>
<path d="M646.294 258.091C646.294 296.82 636.688 333.964 619.591 361.349C602.493 388.735 579.304 404.12 555.124 404.12C530.943 404.12 507.753 388.735 490.655 361.349C473.558 333.964 463.952 296.82 463.952 258.091C463.952 219.361 473.558 182.218 490.655 154.834C507.753 127.448 530.943 112.063 555.124 112.063C579.304 112.063 602.493 127.448 619.591 154.834C636.688 182.218 646.294 219.361 646.294 258.091Z" fill="#1E1E1E"/>
<path d="M546.323 402.626L590.532 409.181L607.694 118.065L563.767 112.736L546.323 402.626Z" fill="#1E1E1E"/>
<path d="M688.5 262.968C688.5 301.696 678.894 338.84 661.795 366.226C644.698 393.613 621.509 408.997 597.328 408.997C573.149 408.997 549.958 393.613 532.861 366.226C515.762 338.84 506.158 301.696 506.158 262.968C506.158 224.239 515.762 187.096 532.861 159.711C549.958 132.325 573.149 116.94 597.328 116.94C621.509 116.94 644.698 132.325 661.795 159.711C678.894 187.096 688.5 224.239 688.5 262.968Z" fill="#2F2F2F"/>
<path d="M673.301 262.968C673.301 295.24 665.295 326.192 651.048 349.011C636.802 371.832 617.478 384.652 597.328 384.652C577.18 384.652 557.855 371.832 543.608 349.011C529.361 326.192 521.357 295.24 521.357 262.968C521.357 230.695 529.361 199.745 543.608 176.924C557.855 154.103 577.18 141.285 597.328 141.285C617.478 141.285 636.802 154.103 651.048 176.924C665.295 199.745 673.301 230.695 673.301 262.968Z" fill="#1E1E1E"/>
<path d="M651.717 262.968C651.717 292.976 636.53 317.301 617.795 317.301C599.061 317.301 583.874 292.976 583.874 262.968C583.874 232.962 599.061 208.636 617.795 208.636C636.53 208.636 651.717 232.962 651.717 262.968Z" fill="#999999"/>
<path d="M635.857 262.968C635.857 274.601 629.969 284.031 622.707 284.031C615.445 284.031 609.559 274.601 609.559 262.968C609.559 251.336 615.445 241.906 622.707 241.906C629.969 241.906 635.857 251.336 635.857 262.968Z" fill="#CCCCCC"/>
<path d="M412.766 302.63C398.949 296.145 391.022 305.367 369.035 277.081C369.035 277.081 380.747 328.755 412.766 302.63Z" fill="#FFA684"/>
<path d="M266.21 313.552C282.848 319.645 299.483 312.363 316.12 303.306C316.12 303.306 287.325 339.8 266.21 313.552Z" fill="#2F2F2F"/>
<path d="M399.444 382.441C399.444 382.441 366.233 405.625 354.646 406.397C343.06 407.171 319.117 408.715 340.743 414.125C362.371 419.535 399.444 382.441 399.444 382.441Z" fill="#2F2F2F"/>
<path d="M404.078 558.641L441.924 516.91C441.924 516.91 405.623 523.092 404.078 558.641Z" fill="#0E0C63"/>
</g>
<defs>
<clipPath id="clip0_183_33">
<rect width="740" height="696" fill="white"/>
</clipPath>
</defs>
</svg>
