<svg width="200" height="200" viewBox="0 0 200 200" fill="none" xmlns="http://www.w3.org/2000/svg">
<path d="M102.813 110.938C110.625 108.75 115.312 100.625 113.437 92.8125C111.562 85 101.25 90.3125 95.3125 95C89.375 100 82.5 92.5 84.6875 100.313C86.875 108.438 95 113.125 102.813 110.938Z" fill="#6E44B3"/>
<path d="M96.5625 145C95.9375 145 95.625 144.687 95 144.375C92.1875 143.437 91.25 143.437 90.625 144.062C87.8125 145.937 83.4375 150.625 76.25 159.375L75 160.625C63.75 174.375 62.1875 176.25 59.375 178.125C57.1875 179.687 54.6875 179.375 54.6875 176.562C54.6875 175.312 55.3125 173.437 56.5625 170.625C58.4375 166.25 61.875 159.687 65.3125 153.75C65.9375 152.812 66.25 152.188 66.875 151.25C68.4375 148.438 74.0625 140.312 73.4375 140.937C74.375 139.687 75 138.75 75.3125 137.812C70.3125 134.687 65 129.375 61.5625 124.375H60.9375C60 124.687 58.4375 125 56.5625 125.625C55 126.25 53.125 126.562 50.625 127.5C50.625 127.5 45.3125 129.375 43.4375 129.687C42.8125 130 42.1875 130 41.5625 130.313C25.625 135.625 20 136.875 18.4375 134.375C17.1875 132.187 19.0625 130.937 23.75 128.437C26.5625 126.875 30.625 125 36.25 122.5C36.875 122.188 37.5 121.875 38.4375 121.563C40 120.938 44.6875 118.75 45.625 118.438C48.4375 117.188 50.3125 116.563 51.875 115.625C53.75 114.688 55.3125 114.063 55.9375 113.438C56.25 113.438 56.25 113.125 56.5625 113.125C55.3125 109.688 54.6875 105.938 54.375 102.188C54.375 102.5 47.8125 92.1875 45 87.8125C44.375 86.875 44.0625 86.25 43.4375 85.3125C37.1875 74.6875 34.375 69.0625 35.625 66.5625C36.25 65 37.8125 65 39.0625 65.9375C39.6875 66.25 40.625 67.1875 41.5625 68.4375C43.125 70.3125 45 73.125 47.8125 76.875C48.125 77.1875 48.4375 77.8125 48.75 78.4375C49.375 79.0625 49.6875 80 50.3125 80.9375C51.25 82.1875 51.5625 82.8125 51.875 83.4375C51.875 83.125 51.5625 82.5 51.25 82.1875C48.4375 75 47.8125 71.5625 50.9375 70.3125C51.875 70 52.8125 70 53.75 70.3125C55.3125 70.9375 56.5625 72.1875 58.4375 74.0625C58.75 74.375 60 75.9375 59.6875 75.625C60 75.9375 60 76.25 60.3125 76.25C61.5625 74.0625 63.125 71.875 65 70C65 69.6875 64.6875 69.375 64.6875 68.75C64.375 67.5 63.75 65.9375 62.8125 64.375C60.625 60.3125 58.125 55.9375 55 52.1875C54.0625 50.9375 52.8125 49.6875 51.5625 48.4375C49.0625 45.9375 47.8125 45 42.8125 41.5625C39.0625 39.0625 38.125 37.8125 38.125 35.9375C38.125 35.625 38.125 35 38.4375 34.6875C40.625 30 51.875 34.6875 63.125 43.4375C65 45 66.875 46.5625 68.75 48.4375C70 49.6875 71.5625 51.25 72.8125 52.8125L74.6875 54.6875C75 55 75.9375 56.25 76.25 56.5625C77.5 57.8125 78.125 58.4375 78.4375 59.0625C84.375 56.25 90.625 54.375 97.5 54.0625C96.25 54.0625 96.25 53.75 96.25 55V54.0625C96.25 53.125 96.5625 51.875 96.5625 49.6875C96.5625 49.0625 96.5625 48.4375 96.875 46.875C96.875 45.625 97.1875 44.6875 97.1875 43.75C97.5 41.25 97.5 39.0625 97.8125 36.875C99.0625 24.0625 100 17.8125 102.5 16.875C104.062 16.25 105.625 16.875 106.562 18.125C107.187 19.0625 107.5 20.625 107.5 22.5C107.5 25.625 107.187 30.3125 106.25 35.625C105.625 40 105 45 104.687 49.0625C104.687 50.9375 104.375 52.5 104.375 53.75C106.875 54.375 109.062 55 111.25 55.625C110.937 55.3125 111.25 55 111.562 54.375C111.562 54.375 113.75 50.9375 114.375 49.6875C114.687 49.0625 115.312 48.4375 115.625 47.8125C118.75 43.4375 120.313 41.5625 122.5 42.5C124.375 43.125 124.375 44.6875 123.438 46.875C123.125 48.125 122.188 50 121.25 52.1875C120.937 52.8125 120.625 53.125 120.625 53.75C120.312 54.375 120 55.3125 119.375 55.9375C119.063 56.5625 118.75 56.875 118.438 57.8125C119.688 58.75 120.938 59.375 122.5 60.3125L124.063 58.75L125.312 57.5C125.625 57.1875 125.625 57.1875 125.938 57.1875C127.5 55.9375 128.438 55 129.375 54.375C130 54.0625 130.625 53.75 131.25 53.75C132.5 53.75 133.125 54.6875 133.125 55.9375C133.125 57.1875 132.5 58.75 131.562 60.3125C131.25 60.9375 130.938 61.5625 130.313 62.1875C130 62.5 128.75 64.375 128.437 64.6875C129.375 65.3125 130 65.9375 130.625 66.5625C130.625 66.25 131.25 66.25 131.875 65.9375C133.438 65.625 135.313 65 137.188 64.0625C142.5 61.875 147.5 58.75 151.563 54.6875C153.438 52.8125 155.313 50.625 156.875 48.4375C158.438 46.5625 159.688 44.375 160.938 41.875C161.875 40.625 164.063 36.25 164.063 36.25C166.875 31.25 168.125 29.6875 170.625 30.9375C175.312 33.4375 170.625 46.875 161.875 60C159.688 63.125 157.188 66.25 154.062 69.375C151.25 72.1875 149.063 74.0625 144.375 78.125C142.813 79.6875 141.875 80.3125 141.25 80.9375C142.813 85.625 144.062 90 144.688 94.6875C145.938 95 147.5 95 149.375 95.3125C150 95.3125 159.375 96.25 162.188 96.5625C176.563 98.125 182.5 99.375 182.5 102.813C182.5 106.25 177.5 106.875 161.875 107.5H157.188C151.875 107.5 149.375 107.813 147.187 107.813C145.937 107.813 145 108.125 144.375 108.125C143.75 109.063 143.75 109.375 143.438 109.688C144.063 110 144.375 110.313 144.688 110.625C144.688 110.625 145.625 111.25 145.938 111.563C146.875 112.188 147.5 112.813 148.125 113.125C149.375 114.063 150 115 150 116.25C150 117.813 148.75 118.437 147.187 118.75C146.25 118.75 145.313 118.75 143.75 118.438H143.125C141.562 118.125 141.25 118.125 140.937 118.125C140.937 118.437 140.625 118.75 140.625 119.062C141.25 120 142.188 120.625 143.438 121.875C144.063 122.5 147.187 125.625 147.187 125.312C148.75 126.875 150.313 128.125 151.563 129.687C152.813 130.937 154.063 132.5 155.313 133.75C160 139.062 163.437 143.437 165.937 146.875C169.375 151.875 170.312 155 167.5 156.562C165.625 157.5 163.75 156.562 160.938 153.437C161.25 153.75 155.625 147.188 153.75 145C151.563 142.813 149.375 140.937 147.187 139.375C144.062 137.187 140.313 135.313 136.563 134.063C135 133.438 133.438 133.125 132.5 133.125H131.25C130 134.375 128.125 135.937 126.25 137.5C126.25 137.812 126.25 137.812 126.563 138.125C126.875 139.062 127.5 140.312 128.125 142.187C129.688 145.625 131.563 149.687 133.75 153.437C134.375 154.375 135 155.625 135.625 156.562C137.188 159.062 141.562 165.625 141.562 165.625C143.75 169.062 144.375 170.625 143.438 172.187C142.5 173.437 140.938 173.125 139.688 171.875C138.75 171.25 137.813 170 136.563 168.75C134.688 166.562 133.75 165.312 128.125 158.437C127.5 157.5 126.875 156.875 126.25 155.938C125 154.375 123.75 152.812 122.5 150.937C121.875 150 119.375 146.875 119.375 146.563C118.438 145 117.812 144.063 117.187 143.438C115.937 143.75 115 144.062 114.062 144.375C114.062 145.312 114.062 146.563 114.375 148.125C114.687 149.375 114.687 150.937 115 153.125C115 154.062 115.937 158.125 115.937 159.375C116.25 160.625 116.25 161.562 116.562 162.812C117.5 168.75 117.812 173.125 118.125 176.562C118.438 181.562 117.813 184.375 115.313 184.375C112.5 184.375 110.625 180.625 107.5 171.562C106.875 169.375 105.937 167.187 105.312 164.687C104.687 163.125 103.125 157.5 103.125 157.812C102.187 155.312 101.875 153.437 101.25 151.875C100.625 150 100 148.75 99.6875 147.812C99.6875 147.5 99.375 147.187 99.375 147.187C98.125 145.312 97.5 145.313 96.5625 145ZM131.25 132.187C131.563 131.875 131.563 131.875 131.25 132.187ZM56.5625 114.063C56.5625 113.75 56.5625 113.75 56.5625 114.063ZM72.5 158.75C73.125 158.125 73.125 157.813 73.75 157.5C81.25 148.438 85.625 143.75 88.75 141.562C90.625 140.312 92.5 140.312 95.9375 141.562C96.5625 141.875 97.1875 141.875 97.5 142.187C98.125 142.5 98.75 142.5 99.375 142.5C101.25 142.5 101.875 144.062 103.75 149.375C104.375 150.937 105 152.812 105.625 155.312C105.625 155 107.187 160.625 107.812 162.188C108.75 165 109.375 167.187 110 169.062C112.187 175 114.062 179.062 114.687 179.687V175.312C114.687 172.187 114.062 167.812 113.125 161.875C113.125 160.937 112.812 159.687 112.5 158.437C112.187 157.5 111.562 153.437 111.562 152.187C111.25 150 110.937 148.437 110.937 146.875C110.312 141.562 110.312 140.625 111.875 140C113.437 139.687 114.687 139.062 116.25 138.437C116.875 138.125 117.5 138.437 117.812 138.437C118.125 138.437 118.125 138.75 118.438 138.75L119.375 139.687C120 140.312 120.625 141.25 121.563 142.812C121.875 143.125 124.063 146.25 124.688 147.187C125.938 149.062 127.187 150.625 128.437 152.187C129.062 153.125 129.688 153.75 130.313 154.687C134.375 160 135.938 161.875 137.188 163.437C135.625 161.25 133.75 158.125 132.813 156.562C132.188 155.312 131.563 154.375 130.938 153.125C125.625 143.75 121.875 135 123.75 133.75C125.937 132.187 127.813 130.625 129.375 129.062C131.25 127.187 142.187 130.938 148.75 135.625C151.25 137.188 153.438 139.375 155.625 141.875C157.812 144.063 163.438 150.625 163.125 150.312C165 152.187 165.625 152.813 165.937 152.813C165.937 152.813 165.313 150.937 163.125 147.812C160.938 144.375 157.5 140 152.813 135C151.563 133.75 150.625 132.5 149.063 131.25L144.688 126.875C144.688 126.875 141.562 124.063 140.937 123.125C137.187 119.375 136.563 118.75 137.188 117.187C137.5 116.562 137.813 115.625 138.125 115C138.75 113.75 139.375 113.75 140.937 113.75C141.562 113.75 141.563 113.75 143.438 114.375H144.062C144.687 114.375 145.312 114.688 145.625 114.688C145.312 114.375 144.688 113.75 143.75 113.125C143.438 112.813 142.5 112.188 142.5 112.188C141.875 111.875 141.563 111.563 141.25 111.25C140 110.313 139.375 109.688 139.688 108.438C140 107.813 140 106.875 140 106.25C140.313 104.063 141.25 104.063 155.938 103.75H160.625C166.563 103.75 170.625 103.438 173.75 103.125C175.625 102.813 176.875 102.5 177.813 102.188H178.437C177.812 102.188 176.25 101.563 173.75 101.25C170.625 100.625 166.563 100 160.938 99.375C157.813 99.0625 148.75 98.125 148.125 98.125C140.625 97.1875 140.937 97.5 140.937 95.625C140.625 90.625 139.375 85.9375 137.188 81.5625C136.563 80 136.25 80 141.562 75.625C146.25 71.5625 148.438 69.6875 151.25 66.875C154.063 64.0625 156.563 60.9375 158.75 58.125C166.25 47.1875 170.313 35.3125 168.75 33.75C168.125 34.6875 167.188 35.9375 166.25 37.5C166.25 37.5 163.75 41.875 163.125 43.125C161.563 45.625 160.312 47.8125 158.75 50C156.875 52.5 155 54.6875 153.125 56.875C145.313 65.625 130.938 71.875 128.125 69.375C127.188 68.4375 126.25 67.5 125 66.875C124.063 66.25 124.063 65.3125 124.688 64.6875C124.688 64.375 125 64.0625 125.312 63.75C125.625 63.4375 126.875 61.5625 127.188 61.25C127.5 60.9375 127.813 60.625 127.813 60.3125L127.188 60.9375L125.938 62.1875L124.688 63.4375L123.75 64.375C123.437 64.375 123.438 64.6875 123.125 64.6875C122.5 65 122.188 65 121.563 64.6875C119.688 63.4375 117.5 62.5 115.625 61.5625C114.375 60 114.375 60 114.687 59.6875C115 59.0625 115 59.0625 115 58.75C115 58.4375 115.312 58.125 115.625 57.5C116.25 56.5625 116.25 55.9375 116.562 55.625C116.875 54.6875 117.5 54.0625 117.812 53.4375C118.125 52.8125 118.438 52.5 118.438 51.875C119.063 50.3125 119.688 49.0625 120 48.125C119.375 48.75 118.75 49.6875 118.125 50.9375C117.812 51.5625 117.5 52.1875 116.875 52.8125C116.25 54.0625 114.062 57.5 114.062 57.5C113.75 58.125 113.125 58.75 113.125 59.0625L112.5 59.6875C111.875 60.3125 111.563 60.3125 110.625 60.3125C108.125 59.6875 105.312 59.0625 102.5 58.75C100.625 58.75 100.625 57.8125 100.937 50.3125C101.25 45.9375 101.875 40.9375 102.5 36.5625C103.437 31.5625 103.75 27.1875 103.75 24.0625C103.75 22.5 103.437 21.5625 103.125 20.9375C102.5 21.25 100.937 28.4375 100.312 38.4375C100 40.625 100 42.8125 99.6875 45.3125C99.6875 46.25 99.6875 47.1875 99.375 48.4375C99.375 50 99.0625 50.625 99.0625 51.25C99.0625 53.4375 98.75 54.6875 98.75 55.625C98.75 56.25 98.75 56.5625 98.4375 56.875V57.5C98.125 58.125 98.125 58.75 96.875 58.75C90.3125 59.0625 84.375 60.625 78.75 63.75C77.1875 64.6875 77.1875 64.375 73.4375 60C73.125 59.6875 72.1875 58.4375 71.875 58.125L70 56.25C68.75 54.6875 67.1875 53.4375 65.9375 51.875C64.0625 50 62.1875 48.4375 60.625 46.875C51.5625 39.6875 41.5625 35.3125 40.9375 36.875C41.25 37.5 50.3125 43.75 53.4375 46.875C54.6875 48.125 55.9375 49.375 57.1875 50.9375C63.4375 58.75 69.375 70.3125 67.5 72.1875C65.625 74.375 63.75 76.875 62.1875 79.375C61.5625 80.3125 60.625 80.625 59.6875 80.3125C59.0625 80 58.75 79.6875 58.125 79.375L56.875 78.125C57.1875 78.4375 55.9375 76.875 55.625 76.5625C54.375 75 53.125 74.0625 52.5 73.75H51.875V75.625C52.1875 77.1875 52.8125 79.0625 53.75 81.875C54.0625 82.5 54.0625 82.8125 54.375 83.4375C54.6875 84.0625 55.3125 85.9375 55.3125 86.25C55.625 87.1875 55.9375 88.125 56.25 88.75C56.875 90.625 57.1875 91.875 57.1875 92.5C56.875 93.75 55.625 94.375 54.6875 93.75C54.375 93.4375 54.0625 93.4375 53.75 92.8125C53.125 92.1875 52.5 91.25 51.5625 90C50.9375 89.0625 50 87.8125 48.75 85.9375C48.4375 85.3125 48.125 84.6875 47.1875 83.4375C46.5625 82.5 45.9375 81.5625 45.625 80.9375C45.3125 80.3125 45 80 44.6875 79.375C42.1875 75.625 40.3125 72.8125 38.75 71.25L38.125 70.625C39.0625 73.125 41.5625 78.4375 45.625 84.6875C46.25 85.625 46.5625 86.25 47.1875 87.1875C47.8125 88.4375 56.875 102.5 56.875 103.125C57.1875 106.875 57.8125 110.625 59.0625 114.063C59.6875 115.938 58.75 116.563 52.5 119.375C50.9375 120 49.0625 120.937 46.25 122.187C45.3125 122.5 40.625 124.687 39.0625 125.312C38.4375 125.625 37.5 125.938 36.875 126.25C31.25 128.75 27.5 130.625 24.6875 131.875C23.75 132.5 23.125 132.812 22.5 133.125C23.4375 133.125 24.6875 132.813 26.25 132.5C29.6875 131.563 34.0625 130.312 40.3125 128.437C40.9375 128.125 41.5625 128.125 42.1875 127.813C43.75 127.188 49.375 125.625 49.0625 125.625C51.5625 124.688 53.4375 124.062 55 123.75C61.25 121.875 61.875 121.562 62.8125 122.812C66.25 127.812 71.875 133.437 76.875 136.25C78.75 137.5 78.125 138.75 75.3125 143.125C75.9375 142.5 70.3125 150.625 68.75 153.125C68.125 154.062 67.8125 154.687 67.1875 155.625C63.75 161.562 60.625 167.812 58.75 172.187C58.125 173.437 57.8125 174.375 57.5 175.312C60.3125 173.437 62.8125 170.625 72.5 158.75Z" fill="#050D42"/>
<path d="M99.375 125C85.625 125 74.375 113.75 74.375 100C74.375 86.25 85.625 75 99.375 75C113.125 75 124.375 86.25 124.375 100C124.375 113.75 113.125 125 99.375 125ZM99.375 118.75C109.687 118.75 118.125 110.312 118.125 100C118.125 89.6875 109.687 81.25 99.375 81.25C89.0625 81.25 80.625 89.6875 80.625 100C80.625 110.312 89.0625 118.75 99.375 118.75Z" fill="#050D42"/>
</svg>
