<svg width="173" height="173" viewBox="0 0 173 173" fill="none" xmlns="http://www.w3.org/2000/svg">
<g id="logo" clip-path="url(#clip0_56_326)">
<path id="Vector" d="M86.5 173C134.273 173 173 134.273 173 86.5C173 38.7274 134.273 0 86.5 0C38.7274 0 0 38.7274 0 86.5C0 134.273 38.7274 173 86.5 173Z" fill="#FDB8AF"/>
<path id="Vector_2" d="M172.328 97.3122L145.128 69.0997L144.167 69.1513L135.456 60.4395L136.803 87.1788H79.9297L53.1904 60.4395L44.6046 81.1069L44.4245 80.9268L27.7925 103.817L97.3473 172.324C136.458 167.431 167.45 136.428 172.328 97.3122Z" fill="#FF6262"/>
<path id="Vector_3" d="M123.063 77.3607H49.9369V95.6423H123.063V77.3607Z" fill="white"/>
<path id="Vector_4" d="M123.063 86.5H49.9369V95.6406H123.063V86.5Z" fill="#D0D1D3"/>
<path id="Vector_5" d="M49.9375 113.922H40.7966C38.2725 113.922 36.2263 111.876 36.2263 109.352V63.6481C36.2263 61.1241 38.2725 59.0778 40.7966 59.0778H49.9372C52.4612 59.0778 54.5075 61.1241 54.5075 63.6481V109.352C54.5078 111.876 52.4616 113.922 49.9375 113.922Z" fill="#232323"/>
<path id="Vector_6" d="M36.2263 86.5V109.352C36.2263 111.876 38.2725 113.922 40.7966 113.922H49.9372C52.4612 113.922 54.5075 111.876 54.5075 109.352V86.5H36.2263Z" fill="#010101"/>
<path id="Vector_7" d="M33.389 104.782H29.9236C28.3561 104.782 27.0857 103.511 27.0857 101.944V71.0564C27.0857 69.4889 28.3561 68.2184 29.9236 68.2184H33.389C34.9565 68.2184 36.2269 69.4889 36.2269 71.0564V101.944C36.2263 103.511 34.9558 104.782 33.389 104.782Z" fill="#232323"/>
<path id="Vector_8" d="M27.086 86.5V101.944C27.086 103.51 28.3565 104.782 29.9239 104.782H33.3893C34.9568 104.782 36.2273 103.511 36.2273 101.944V86.5H27.086Z" fill="black"/>
<path id="Vector_9" d="M123.062 59.0782H132.203C134.727 59.0782 136.773 61.1244 136.773 63.6485V109.352C136.773 111.876 134.727 113.922 132.203 113.922H123.062C120.538 113.922 118.492 111.876 118.492 109.352V63.6481C118.492 61.1244 120.538 59.0782 123.062 59.0782Z" fill="#232323"/>
<path id="Vector_10" d="M118.492 86.5V109.352C118.492 111.876 120.538 113.922 123.062 113.922H132.203C134.727 113.922 136.773 111.876 136.773 109.352V86.5H118.492Z" fill="#010101"/>
<path id="Vector_11" d="M139.611 68.2184H143.076C144.644 68.2184 145.914 69.4889 145.914 71.0564V101.944C145.914 103.511 144.644 104.782 143.076 104.782H139.611C138.044 104.782 136.773 103.511 136.773 101.944V71.0564C136.774 69.4889 138.044 68.2184 139.611 68.2184Z" fill="#232323"/>
<path id="Vector_12" d="M136.774 86.5V101.944C136.774 103.51 138.044 104.782 139.612 104.782H143.077C144.645 104.782 145.915 103.511 145.915 101.944V86.5H136.774Z" fill="#010101"/>
</g>
<defs>
<clipPath id="clip0_56_326">
<rect width="173" height="173" fill="white"/>
</clipPath>
</defs>
</svg>
