<svg width="768" height="806" viewBox="0 0 768 806" fill="none" xmlns="http://www.w3.org/2000/svg">
<path d="M408.99 40.3C401.641 40.337 394.302 41.2026 387.209 42.9758C375.86 45.8127 365.148 51.0081 356.431 58.3376C343.788 68.9634 335.743 83.6754 331.191 98.9424C326.639 114.211 325.349 130.14 324.476 145.963C323.604 161.787 323.116 177.689 320.092 193.283C317.07 208.877 311.357 224.309 301.021 236.908C290.435 249.81 275.428 259.173 259.319 265.423C243.208 271.673 225.955 274.977 208.69 277.367C174.157 282.145 138.032 283.693 107.087 298.72C85.513 309.197 67.6954 325.876 55.3778 345.391C43.0612 364.907 36.1321 387.175 33.9534 409.71C29.5951 454.782 43.9284 499.847 64.6049 540.818C82.0245 575.331 104.252 608.082 133.261 635.031C148.399 649.094 165.481 664.587 184.006 674.54C225.867 653.643 305.062 640.338 405.663 640.315C501.527 640.29 577.221 649.793 618.856 669.698C661.507 642.632 695.69 603.882 715.225 559.379C742.917 496.292 741.041 422.705 711.062 360.529C677.425 290.77 612.609 238.703 566.992 175.093C540.914 138.731 520.397 97.7519 484.827 69.1741C467.042 54.8853 445.467 44.0765 422.177 41.1127C417.811 40.5561 413.399 40.2807 408.99 40.3Z" fill="#FDBEB3"/>
<path d="M175.802 714.112C175.802 727.794 200.02 740.916 243.126 750.59C286.236 760.265 344.702 765.7 405.665 765.7C466.627 765.7 525.093 760.265 568.202 750.59C611.309 740.916 635.526 727.794 635.526 714.112C635.526 700.429 611.309 687.308 568.202 677.633C525.093 667.958 466.627 662.523 405.665 662.523C344.702 662.523 286.236 667.958 243.126 677.633C200.02 687.308 175.802 700.429 175.802 714.112Z" fill="#1A1A1A"/>
<path d="M450.388 97.4227C443.373 97.5302 438.52 102.435 435.518 106.972C435.423 106.917 435.332 106.856 435.238 106.8C434.886 106.59 434.529 106.385 434.165 106.184C434.064 106.128 433.961 106.074 433.858 106.018C433.482 105.814 433.101 105.61 432.713 105.416C432.695 105.41 432.676 105.397 432.663 105.393C432.265 105.195 431.864 105.006 431.455 104.819C431.339 104.769 431.225 104.715 431.109 104.664C430.258 104.285 429.383 103.935 428.489 103.606C428.388 103.57 428.289 103.533 428.186 103.497C427.769 103.349 427.348 103.205 426.925 103.067C426.769 103.018 426.613 102.968 426.456 102.919C426.046 102.792 425.635 102.668 425.218 102.549C425.194 102.543 425.168 102.538 425.147 102.532C424.216 102.271 423.272 102.044 422.319 101.841C422.101 101.799 421.882 101.752 421.665 101.709C421.306 101.64 420.949 101.573 420.588 101.513C420.455 101.487 420.321 101.47 420.186 101.444C419.755 101.375 419.32 101.313 418.884 101.257C418.712 101.231 418.54 101.214 418.366 101.195C417.929 101.145 417.491 101.094 417.05 101.056C417.046 101.056 417.039 101.057 417.033 101.056C416.535 101.012 416.034 100.978 415.535 100.952C415.43 100.948 415.327 100.946 415.222 100.939C414.723 100.915 414.222 100.903 413.723 100.896C413.218 100.892 412.72 100.9 412.218 100.915C412.068 100.92 411.918 100.926 411.765 100.935C411.426 100.946 411.086 100.972 410.747 100.991C410.568 101.004 410.387 101.014 410.207 101.027C409.876 101.06 409.543 101.092 409.212 101.129C408.941 101.158 408.672 101.192 408.403 101.227C408.034 101.276 407.666 101.33 407.301 101.392C407.163 101.418 407.028 101.442 406.89 101.468C406.523 101.532 406.157 101.606 405.794 101.683C405.667 101.709 405.54 101.734 405.414 101.764C404.442 101.986 403.486 102.25 402.549 102.562C402.472 102.588 402.396 102.614 402.319 102.642C401.861 102.799 401.41 102.966 400.96 103.144C400.93 103.157 400.9 103.171 400.87 103.183C399.909 103.572 398.972 104.015 398.066 104.511C398.04 104.524 398.009 104.542 397.983 104.554C397.53 104.806 397.083 105.068 396.644 105.348C396.64 105.349 396.64 105.354 396.632 105.358C396.185 105.644 395.744 105.943 395.314 106.259C394.882 106.575 394.465 106.897 394.063 107.224L394.059 107.228C393.691 107.529 393.335 107.834 392.989 108.143C392.922 108.206 392.855 108.264 392.789 108.324C392.492 108.595 392.202 108.87 391.922 109.145C391.845 109.223 391.765 109.298 391.691 109.375C391.435 109.633 391.188 109.893 390.947 110.153C390.863 110.244 390.781 110.331 390.702 110.422C390.425 110.728 390.16 111.035 389.904 111.344L389.902 111.348C389.889 111.359 389.883 111.378 389.87 111.392C389.298 112.088 388.776 112.79 388.296 113.497L388.292 113.502C388.279 113.522 388.268 113.545 388.256 113.565C388.026 113.904 387.804 114.244 387.596 114.585V114.59C387.413 114.89 387.239 115.193 387.07 115.495C387.001 115.615 386.934 115.735 386.87 115.856C386.706 116.159 386.542 116.457 386.395 116.758V116.763C386.242 117.066 386.098 117.369 385.96 117.669C385.82 117.977 385.692 118.284 385.567 118.589C385.521 118.694 385.473 118.8 385.429 118.905V118.908C384.882 120.279 384.467 121.611 384.153 122.873C384.127 122.964 384.11 123.054 384.088 123.144C383.482 125.68 383.28 127.907 383.239 129.506V129.51C383.22 130.323 383.235 130.974 383.256 131.423V131.428C383.259 131.451 383.259 131.438 383.26 131.464C383.286 131.881 383.31 132.119 383.31 132.119C383.31 132.119 383.379 132.354 383.385 132.371C382.147 136.102 382.07 140.708 382.444 144.968C382.669 141.246 383.343 137.508 384.022 134.497C385.178 138.297 387.676 146.171 390.856 154.326C389.883 158.081 388.881 163.68 391.392 164.213C392.782 164.508 394.063 164.495 395.131 164.359C400.086 174.88 405.79 182.93 410.555 178.758C412.956 176.66 414.632 175.22 416.107 173.965C416.765 173.404 417.326 172.931 417.835 172.503C418.582 171.878 419.268 171.309 419.733 170.934C420.094 170.642 420.378 170.416 420.616 170.234C420.891 170.023 421.156 169.821 421.283 169.735C421.415 169.643 421.498 169.591 421.551 169.561C421.568 169.555 421.635 169.524 421.635 169.524H421.637L426.716 175.989C426.716 175.989 425.777 176.091 424.334 176.402C424.328 176.404 424.328 176.404 424.322 176.407C424.315 176.407 424.308 176.411 424.296 176.413C423.931 176.492 423.535 176.587 423.107 176.697C423.036 176.716 422.968 176.736 422.896 176.752C422.508 176.858 422.104 176.976 421.674 177.109C421.575 177.139 421.471 177.174 421.371 177.206C420.298 177.548 419.139 177.991 417.936 178.541C417.783 178.612 417.629 178.68 417.473 178.754C412.305 181.234 406.669 185.861 405.474 194.461C403.164 211.084 405.474 242.483 405.474 242.483C405.474 242.483 399.471 289.58 396.24 299.278C393.008 308.975 393.47 381.008 385.156 400.401C380.853 405.921 375.626 420.719 373.466 431.605L366.663 431.36C365.83 403.526 354.186 377.113 334.202 357.722C314.22 338.329 287.469 327.481 259.622 327.479C231.221 327.481 203.981 338.763 183.897 358.848C163.813 378.932 152.53 406.173 152.53 434.576C152.53 462.979 163.813 490.218 183.897 510.303C203.981 530.387 231.221 541.671 259.622 541.671C286.891 541.66 313.126 531.249 332.981 512.56C352.835 493.87 364.813 468.312 366.475 441.097L372.504 441.127C372.611 442.436 372.901 443.392 373.412 443.883C373.87 444.321 374.674 444.708 375.729 445.039C375.529 446.155 375.426 446.898 375.426 446.898C377.388 452.555 395.166 450.708 399.437 449.668C401.356 449.202 403.436 447.197 405.064 444.682C406.341 444.187 407.172 443.596 407.37 442.902C407.473 442.545 407.546 441.987 407.602 441.293L411.7 441.319C406.656 467.072 405.927 522.387 411.477 550.014C416.305 574.053 420.233 630.261 420.934 666.48C421.141 666.565 421.347 666.647 421.557 666.728C421.867 666.85 422.178 666.967 422.495 667.081C422.808 667.194 423.131 667.304 423.449 667.41C423.767 667.517 424.089 667.619 424.412 667.717C424.734 667.816 425.059 667.913 425.386 668.005C425.71 668.098 426.039 668.188 426.368 668.274C426.039 668.188 425.71 668.1 425.386 668.009C425.059 667.916 424.734 667.82 424.412 667.721C424.089 667.622 423.767 667.52 423.449 667.413C423.131 667.307 422.811 667.198 422.495 667.083C422.178 666.971 421.867 666.853 421.557 666.732C421.349 666.649 421.141 666.565 420.934 666.48C420.971 668.283 420.996 670.02 421.014 671.723C414.301 675.119 407.357 685.103 401.328 694.481C392.513 708.194 352.354 715.053 363.455 728.114C374.556 741.173 456.836 737.906 462.386 733.987C466.335 731.2 465.159 717.856 463.682 707.319C482.594 710.333 510.159 714.101 513.974 711.134C519.853 706.562 509.079 685.993 508.752 675.545C508.599 670.684 505.76 667.733 502.77 665.965C503.406 662.873 504.228 658.782 505.137 653.974C504.988 653.962 504.859 653.956 504.709 653.943C503.737 653.864 502.716 653.771 501.657 653.658C500.599 653.546 499.505 653.413 498.383 653.26C497.262 653.108 496.111 652.933 494.947 652.733C493.781 652.534 492.599 652.31 491.413 652.058C490.819 651.931 490.227 651.797 489.631 651.657C489.038 651.517 488.443 651.369 487.85 651.214C487.256 651.059 486.668 650.897 486.078 650.726C485.49 650.555 484.905 650.377 484.323 650.189C483.742 650.001 483.166 649.805 482.594 649.601C482.022 649.396 481.45 649.183 480.892 648.96C480.333 648.738 479.781 648.503 479.237 648.262C478.706 648.027 478.184 647.78 477.67 647.525V647.528C477.619 651.342 477.518 654.671 477.397 657.528C474.698 657.524 472.496 658.325 471.529 660.525C469.582 664.953 462.062 669.475 455.588 672.688C455.711 671.571 455.815 670.611 455.942 669.444C458.436 646.472 461.707 614.367 462.266 598.959C463.19 573.562 455.803 538.008 455.803 538.008L461.756 521.358C465.217 534.961 470.764 550.655 474.275 582.794C477.326 610.725 477.87 632.674 477.67 647.522C478.184 647.775 478.706 648.023 479.237 648.259C479.781 648.5 480.333 648.734 480.892 648.957C481.45 649.18 482.021 649.393 482.592 649.597C483.164 649.802 483.74 649.999 484.323 650.186C484.905 650.374 485.49 650.552 486.078 650.722C486.668 650.894 487.256 651.056 487.85 651.211C488.443 651.366 489.036 651.513 489.631 651.654C490.224 651.794 490.819 651.929 491.413 652.055C492.599 652.307 493.781 652.531 494.947 652.731C496.111 652.93 497.259 653.103 498.383 653.257C499.505 653.411 500.599 653.543 501.657 653.655C502.716 653.768 503.737 653.862 504.709 653.94C504.859 653.952 504.988 653.958 505.137 653.971C508.369 636.869 512.599 611.354 512.599 594.804C512.599 568.022 501.977 519.999 501.977 519.999L509.592 493.517C521.076 501.066 534.516 505.093 548.259 505.104C566.962 505.104 584.902 497.674 598.127 484.449C611.354 471.225 618.784 453.286 618.784 434.58C618.787 415.874 611.357 397.936 598.13 384.709C584.902 371.482 566.962 364.052 548.259 364.052C543.12 364.058 538 364.623 532.986 365.739C530.666 357.041 527.315 350.042 524.098 344.465C514.303 327.485 508.444 302.05 508.444 302.05C508.444 302.05 509.725 286.41 510.189 267.469C510.209 266.622 510.232 265.782 510.246 264.922C510.271 263.766 510.288 262.618 510.301 261.443C510.327 259.605 510.346 257.75 510.353 255.887C510.355 255.107 510.346 254.331 510.346 253.548C510.342 251.924 510.327 250.298 510.301 248.674C510.271 246.44 510.228 244.218 510.153 242.017C510.121 241.162 510.097 240.312 510.058 239.466C510.048 239.137 510.028 238.81 510.016 238.484C509.979 237.589 509.932 236.704 509.882 235.823C509.863 235.511 509.852 235.199 509.833 234.888C509.777 233.929 509.713 232.984 509.645 232.044C509.626 231.741 509.601 231.44 509.582 231.141C509.498 230.037 509.407 228.947 509.306 227.875C509.299 227.818 509.294 227.765 509.287 227.707C509.179 226.57 509.061 225.45 508.934 224.358C508.933 224.332 508.928 224.309 508.923 224.28C508.801 223.238 508.668 222.224 508.528 221.229C508.509 221.074 508.485 220.921 508.463 220.768C508.332 219.862 508.193 218.97 508.043 218.106C508 217.852 507.952 217.607 507.907 217.358C507.767 216.584 507.621 215.827 507.468 215.095C507.442 214.98 507.423 214.863 507.395 214.749C507.213 213.9 507.015 213.094 506.811 212.309C506.781 212.195 506.749 212.081 506.72 211.97C506.519 211.217 506.31 210.499 506.086 209.814C506.037 209.651 505.979 209.495 505.925 209.337C505.695 208.657 505.457 207.998 505.203 207.391C504.915 206.697 504.61 206.02 504.283 205.354C504.27 205.334 504.264 205.318 504.251 205.298C503.933 204.653 503.6 204.021 503.249 203.4C503.243 203.381 503.23 203.368 503.219 203.357C502.89 202.779 502.551 202.211 502.197 201.654C502.153 201.592 502.114 201.526 502.074 201.461C501.717 200.909 501.345 200.367 500.965 199.832C500.921 199.77 500.878 199.71 500.836 199.647C500.462 199.129 500.077 198.62 499.681 198.119C499.617 198.038 499.554 197.954 499.49 197.872C499.129 197.42 498.755 196.975 498.379 196.537C498.267 196.408 498.157 196.279 498.046 196.153C497.654 195.709 497.257 195.271 496.853 194.841C496.77 194.751 496.686 194.661 496.599 194.573C496.191 194.143 495.772 193.721 495.348 193.305C495.243 193.197 495.136 193.092 495.028 192.987C494.645 192.617 494.257 192.251 493.865 191.888C493.685 191.723 493.506 191.557 493.324 191.394C493.175 191.259 493.022 191.127 492.872 190.992C492.464 190.631 492.054 190.27 491.636 189.917C491.544 189.836 491.45 189.756 491.355 189.676C491.332 187.863 490.785 185.769 489.552 183.368C489.747 185.034 489.779 186.676 489.616 188.254C489.122 187.86 488.621 187.476 488.12 187.091C487.336 186.492 486.545 185.905 485.749 185.329C485.296 185 484.847 184.673 484.391 184.352C483.732 183.886 483.072 183.426 482.409 182.973C475.955 178.534 469.527 174.633 464.75 170.496C476.264 175.093 473.477 165.866 473.477 165.866C482.267 173.03 487.185 178.768 489.552 183.368C488.172 171.602 479.028 158.681 479.028 158.681C479.028 158.681 477.393 107.746 458.455 99.2564C455.497 97.9298 452.809 97.3925 450.38 97.4311L450.388 97.4227ZM382.438 144.966C382.143 149.811 382.611 154.621 384.806 157.746C384.806 157.746 383.04 151.803 382.438 144.966ZM452.613 144.485C460.69 151.003 467.934 158.675 467.934 158.675C468.323 168.007 466.048 169.928 464.144 169.959C462.023 168.05 460.267 166.081 459.034 163.979C456.628 159.876 454.962 154.425 453.539 148.536C453.219 147.206 452.914 145.849 452.613 144.485ZM408.445 395.705C409.956 414.022 412.307 428.648 413.055 433.026L407.643 432.833C407.305 421.052 405.932 403.632 405.932 403.632C405.932 403.632 407.972 397.193 408.445 395.705ZM430.364 669.134C431.036 669.255 431.713 669.361 432.39 669.458C433.067 669.554 433.742 669.641 434.417 669.716C435.094 669.792 435.769 669.857 436.441 669.914C437.115 669.97 437.783 670.018 438.449 670.056C439.115 670.099 439.778 670.121 440.435 670.146C441.091 670.165 441.74 670.184 442.382 670.19C443.027 670.196 443.661 670.196 444.289 670.193C444.914 670.186 445.533 670.181 446.139 670.162C446.748 670.15 447.343 670.124 447.928 670.099C448.512 670.074 449.084 670.043 449.64 670.008C450.2 669.977 450.745 669.93 451.274 669.892C451.805 669.848 452.319 669.81 452.817 669.766C453.314 669.722 453.795 669.677 454.257 669.626C454.72 669.577 455.162 669.535 455.588 669.485C455.162 669.535 454.72 669.58 454.257 669.63C453.795 669.68 453.314 669.725 452.817 669.769C452.319 669.813 451.805 669.857 451.274 669.895C450.745 669.933 450.2 669.977 449.64 670.008C449.084 670.046 448.512 670.074 447.928 670.099C447.343 670.124 446.748 670.143 446.139 670.164C445.533 670.176 444.914 670.189 444.289 670.195C443.661 670.198 443.027 670.198 442.382 670.192C441.74 670.186 441.091 670.173 440.435 670.148C439.778 670.123 439.115 670.097 438.449 670.057C437.783 670.019 437.115 669.972 436.441 669.915C435.769 669.859 435.094 669.794 434.417 669.718C433.742 669.642 433.067 669.557 432.39 669.459C431.713 669.363 431.036 669.255 430.364 669.136V669.134Z" fill="white"/>
<path d="M615.47 437.886C615.47 476.836 583.895 508.41 544.944 508.41C505.994 508.41 474.418 476.836 474.418 437.886C474.418 398.936 505.994 367.36 544.944 367.36C583.895 367.36 615.47 398.936 615.47 437.886Z" fill="#1A1A1A"/>
<path d="M402.619 406.942C402.619 406.942 405.36 441.638 404.055 446.21C402.749 450.782 374.016 450.945 370.098 447.191C366.18 443.435 375.138 412.307 381.842 403.709C388.545 395.112 402.619 406.942 402.619 406.942Z" fill="#1A1A1A"/>
<path d="M542.533 441.112L349.98 434.185V444.344L544.379 445.266L542.533 441.112Z" fill="#333333"/>
<path d="M363.405 437.886C363.405 466.287 352.121 493.528 332.037 513.613C311.952 533.696 284.713 544.979 256.31 544.979C227.907 544.979 200.666 533.696 180.582 513.613C160.498 493.528 149.215 466.287 149.215 437.886C149.215 409.482 160.498 382.242 180.582 362.156C200.666 342.073 227.907 330.791 256.31 330.791C284.713 330.791 311.952 342.073 332.037 362.156C352.121 382.242 363.405 409.482 363.405 437.886Z" fill="#1A1A1A"/>
<path d="M499.282 664.935C499.282 664.935 512.017 666.567 512.341 677.016C512.668 687.464 523.443 708.034 517.566 712.605C511.69 717.176 449.327 705.749 449.327 705.749L449 678.649C449 678.649 471.529 670.159 475.119 661.996C478.71 653.834 499.282 664.935 499.282 664.935Z" fill="#FF6262" fill-opacity="0.75"/>
<path d="M520.747 441.342C520.747 451.483 528.968 459.704 539.109 459.704C549.249 459.704 557.47 451.483 557.47 441.342C557.47 431.202 549.249 422.98 539.109 422.98C528.968 422.98 520.747 431.202 520.747 441.342Z" fill="#333333"/>
<path d="M487.632 424.369C496.191 424.398 507.033 430.602 520.782 446.375L498.664 523.305C498.664 523.305 509.284 571.327 509.284 598.109C509.284 614.658 505.057 640.175 501.822 657.276C501.674 657.264 501.547 657.257 501.396 657.244C500.425 657.166 499.402 657.072 498.345 656.96C497.287 656.847 496.191 656.715 495.069 656.562C493.947 656.409 492.797 656.235 491.632 656.035C490.468 655.835 489.285 655.611 488.098 655.359C487.506 655.233 486.912 655.098 486.317 654.959C485.724 654.819 485.129 654.671 484.535 654.516C483.944 654.36 483.353 654.198 482.764 654.028C482.175 653.857 481.591 653.679 481.008 653.491C480.428 653.303 479.852 653.108 479.28 652.902C478.708 652.698 478.138 652.485 477.58 652.262C477.019 652.039 476.468 651.805 475.923 651.564C475.392 651.328 474.872 651.081 474.356 650.827C474.556 635.978 474.012 614.029 470.96 586.1C464.959 531.15 452.953 524.225 455.723 493.749C457.759 471.368 463.972 424.283 487.632 424.364V424.369Z" fill="#FFA684"/>
<path d="M443.27 422.336C461.103 422.34 480.529 429.538 486.661 445.729L452.491 541.312C452.491 541.312 459.878 576.866 458.954 602.263C458.393 617.671 455.124 649.777 452.63 672.749C452.503 672.762 452.409 672.78 452.278 672.793C451.854 672.843 451.412 672.89 450.947 672.938C450.487 672.988 450.004 673.033 449.508 673.076C449.011 673.121 448.495 673.163 447.964 673.203C447.436 673.241 446.891 673.283 446.333 673.316C445.774 673.348 445.202 673.381 444.62 673.407C444.035 673.432 443.437 673.458 442.831 673.472C442.223 673.49 441.605 673.496 440.979 673.503C440.351 673.508 439.717 673.507 439.074 673.499C438.432 673.494 437.78 673.474 437.125 673.456C436.47 673.431 435.806 673.405 435.139 673.365C434.472 673.327 433.804 673.28 433.132 673.223C432.459 673.167 431.784 673.102 431.109 673.026C430.432 672.95 429.757 672.864 429.08 672.767C428.406 672.671 427.728 672.564 427.053 672.444C426.718 672.381 426.38 672.322 426.045 672.256C425.71 672.191 425.377 672.121 425.044 672.05C424.711 671.977 424.376 671.902 424.044 671.823C423.713 671.744 423.382 671.662 423.053 671.577C422.727 671.492 422.397 671.404 422.071 671.312C421.747 671.22 421.422 671.123 421.099 671.024C420.775 670.925 420.455 670.823 420.135 670.717C419.817 670.61 419.496 670.501 419.18 670.387C418.866 670.273 418.555 670.156 418.243 670.035C418.035 669.953 417.826 669.867 417.62 669.783C416.922 633.565 412.992 577.354 408.163 553.318C402.063 522.948 403.546 459.117 410.009 437.877C413.039 427.92 427.537 422.327 443.27 422.333V422.336Z" fill="#FFDBC1"/>
<path d="M505.13 305.356C505.13 305.356 510.987 330.791 520.782 347.769C530.578 364.746 541.68 394.786 520.782 446.374C520.782 446.374 494.972 451.732 486.661 445.729C486.661 445.729 442.793 431.414 410.01 437.88C410.01 437.88 402.62 397.244 404.006 360.306C405.39 323.365 426.632 290.119 426.632 290.119C426.632 290.119 476.501 271.185 505.13 305.356Z" fill="#3836B9"/>
<path d="M379.993 135.432C379.993 135.432 396.156 191.766 407.239 182.068C418.32 172.37 418.32 172.832 418.32 172.832L423.399 179.297C423.399 179.297 404.468 181.143 402.158 197.766C399.849 214.392 402.158 245.789 402.158 245.789C402.158 245.789 396.156 292.888 392.924 302.585C389.691 312.283 390.153 384.316 381.842 403.709C381.842 403.709 393.386 419.411 402.619 406.942C402.619 406.942 424.323 338.601 428.94 323.365C433.557 308.126 430.787 303.972 430.787 303.972C430.787 303.972 492.661 295.66 505.13 305.356C505.13 305.356 511.133 232.861 501.898 210.697C492.661 188.533 463.572 180.682 455.723 167.291C447.872 153.901 447.872 126.196 438.638 115.576C429.402 104.954 405.853 99.4151 391.999 109.573C378.147 119.73 379.993 135.432 379.993 135.432Z" fill="#FFDBC1"/>
<path d="M445.686 686.684C445.686 686.684 457.438 691.582 458.746 700.071C460.052 708.56 464.624 733.375 459.072 737.294C453.52 741.212 371.242 744.477 360.14 731.416C349.039 718.356 389.2 711.499 398.014 697.786C406.83 684.072 417.605 669.053 426.748 675.257C435.89 681.46 445.686 686.684 445.686 686.684Z" fill="#FF6262" fill-opacity="0.81"/>
<path d="M417.62 669.784C417.826 669.87 418.035 669.955 418.243 670.036C418.555 670.158 418.866 670.275 419.18 670.389C419.496 670.502 419.817 670.612 420.135 670.718C420.455 670.825 420.775 670.927 421.098 671.025C421.422 671.124 421.744 671.222 422.071 671.313C422.397 671.406 422.725 671.494 423.053 671.578C423.382 671.663 423.711 671.746 424.044 671.824C424.376 671.903 424.708 671.979 425.041 672.051C425.375 672.123 425.71 672.191 426.045 672.258C426.38 672.324 426.715 672.385 427.053 672.446C427.726 672.565 428.403 672.672 429.08 672.769C429.757 672.866 430.432 672.952 431.107 673.028C431.784 673.103 432.459 673.169 433.132 673.225C433.804 673.281 434.472 673.328 435.139 673.367C435.806 673.404 436.467 673.435 437.123 673.457C437.78 673.483 438.432 673.494 439.072 673.501C439.717 673.507 440.351 673.507 440.977 673.504C441.605 673.499 442.223 673.485 442.831 673.473C443.437 673.454 444.033 673.436 444.618 673.409C445.202 673.384 445.774 673.353 446.331 673.318C446.891 673.286 447.436 673.245 447.964 673.205C448.495 673.167 449.009 673.123 449.508 673.078C450.004 673.034 450.487 672.987 450.948 672.939C451.409 672.889 451.854 672.843 452.278 672.794C452.407 672.782 452.503 672.763 452.63 672.751C451.014 687.644 449.72 698.773 449.72 698.773C449.72 698.773 415.449 724.92 417.396 694.615C417.772 688.771 417.818 680.033 417.618 669.786L417.62 669.784Z" fill="white"/>
<path d="M474.356 650.829C474.872 651.084 475.392 651.33 475.923 651.566C476.468 651.808 477.019 652.042 477.58 652.265C478.138 652.487 478.708 652.7 479.28 652.904C479.852 653.109 480.428 653.306 481.008 653.494C481.591 653.681 482.175 653.859 482.765 654.03C483.353 654.201 483.944 654.363 484.535 654.518C485.129 654.673 485.724 654.821 486.317 654.961C486.912 655.102 487.506 655.236 488.098 655.362C489.286 655.615 490.468 655.838 491.632 656.038C492.798 656.238 493.947 656.412 495.069 656.565C496.191 656.718 497.287 656.85 498.345 656.962C499.403 657.076 500.425 657.169 501.397 657.248C501.547 657.259 501.674 657.266 501.822 657.279C499.823 667.852 498.203 675.225 498.203 675.225C498.203 675.225 480.658 690.922 473.271 672.913C473.271 672.913 474.16 665.195 474.356 650.832V650.829Z" fill="white"/>
<path d="M372.112 450.206C372.112 450.206 373.729 438.432 376.729 438.432C379.732 438.432 379.962 441.434 379.962 441.434C379.962 441.434 384.578 434.737 388.967 434.737C393.354 434.737 403.628 433.353 404.55 438.315C405.474 443.281 400.395 451.938 396.122 452.976C391.852 454.016 374.074 455.863 372.112 450.206Z" fill="#FFDBC1"/>
<path d="M410.411 104.208C421.503 104.284 432.866 108.937 438.638 115.576C445.471 123.432 447.253 140.633 450.894 154.479C437.794 152.13 419.563 159.7 419.563 159.7C426.093 156.759 421.852 138.148 415.32 139.78C408.79 141.414 412.709 155.128 412.709 155.128C399.649 151.21 379.994 135.43 379.994 135.43C379.994 135.43 378.15 119.73 392.002 109.571C397.197 105.762 403.755 104.161 410.411 104.208Z" fill="#493022"/>
<path d="M428.379 117.906C428.379 117.906 436.216 94.0703 455.154 102.56C474.091 111.05 475.723 161.984 475.723 161.984C475.723 161.984 501.846 198.88 472.458 204.758C472.458 204.758 509.026 200.84 470.173 169.168C470.173 169.168 473.438 179.942 458.418 172.433C458.418 172.433 465.275 177.658 464.623 161.984C464.623 161.984 442.746 138.802 432.624 138.802C422.503 138.802 428.379 117.906 428.379 117.906Z" fill="#493022"/>
<path d="M423.399 179.297C423.399 179.297 442.419 187.126 464.622 193.328C476.917 196.765 478.493 190.988 477.455 185.15C487.131 191.682 497.141 199.282 501.898 210.697C507.376 223.845 507.483 254.642 506.673 277.574C483.678 268.551 433.604 275.936 433.604 275.936L441.114 256.673C441.114 256.673 464.294 238.715 463.315 217.167C462.799 205.807 438.52 180.11 414.871 181.733C417.237 180.675 419.425 180.058 421.005 179.715C422.224 179.5 423.399 179.297 423.399 179.297Z" fill="#1A1A1A"/>
<path d="M433.66 275.313C434.004 275.346 434.256 275.652 434.221 275.998L431.412 304.027C431.378 304.372 431.07 304.623 430.726 304.591C430.383 304.556 430.131 304.251 430.165 303.905L432.977 275.875C433.009 275.529 433.316 275.28 433.66 275.313Z" fill="#FFA684"/>
<path d="M516.006 373.567C516.33 373.453 516.683 373.623 516.799 373.945C516.799 373.945 520.083 383.237 517.985 396.881C515.885 410.527 508.405 428.577 487.058 446.21C486.792 446.429 486.396 446.391 486.177 446.124C485.96 445.857 485.998 445.464 486.263 445.245C507.399 427.786 514.695 410.054 516.752 396.686C518.809 383.318 515.627 374.363 515.627 374.363C515.513 374.038 515.684 373.683 516.006 373.567Z" fill="#4D4D4D"/>
<path d="M436.117 518.021C439.257 518.073 441.59 520.435 443.253 523.363C446.58 529.215 447.614 537.72 447.614 537.72C447.657 538.064 447.41 538.378 447.064 538.416C446.724 538.458 446.415 538.219 446.368 537.879C446.368 537.879 445.286 529.477 442.165 523.986C440.605 521.239 438.625 519.322 436.105 519.281C433.583 519.236 430.208 521.108 425.938 526.589C425.725 526.862 425.332 526.912 425.059 526.698C424.784 526.486 424.734 526.09 424.947 525.819C429.329 520.197 432.975 517.973 436.117 518.024V518.021Z" fill="#FFA684"/>
<path d="M484.969 514.357C486.783 513.648 488.421 513.809 489.735 514.477C491.048 515.148 492.038 516.281 492.802 517.46C494.325 519.82 494.94 522.471 494.94 522.471C495.021 522.809 494.813 523.148 494.476 523.227C494.142 523.302 493.809 523.097 493.73 522.763C493.73 522.763 493.126 520.261 491.75 518.131C491.063 517.067 490.188 516.115 489.16 515.591C488.131 515.066 486.953 514.931 485.421 515.529C482.416 516.7 480.811 520.498 480.032 524.13C479.254 527.765 479.286 531.096 479.286 531.096C479.293 531.439 479.02 531.723 478.676 531.73C478.328 531.737 478.042 531.457 478.04 531.107C478.04 531.107 477.996 527.668 478.809 523.874C479.622 520.078 481.279 515.795 484.969 514.355V514.357Z" fill="#FFDBC1"/>
<path d="M203.579 435.571C203.579 455.087 219.4 470.908 238.916 470.908C258.434 470.908 274.253 455.087 274.253 435.571C274.253 416.053 258.434 400.232 238.916 400.232C219.4 400.232 203.579 416.053 203.579 435.571Z" fill="#1A1A1A"/>
<path d="M213.102 435.571C213.102 449.828 224.659 461.386 238.916 461.386C253.175 461.386 264.731 449.828 264.731 435.571C264.731 421.312 253.175 409.755 238.916 409.755C224.659 409.755 213.102 421.312 213.102 435.571Z" fill="#333333"/>
<path d="M450.253 221.927C450.53 222.131 450.588 222.525 450.383 222.802L446.522 227.999L441.48 256.305C441.419 256.646 441.099 256.873 440.759 256.818C440.416 256.757 440.188 256.428 440.252 256.085L445.314 227.634C445.333 227.537 445.374 227.449 445.432 227.372L449.378 222.054C449.585 221.777 449.978 221.719 450.253 221.927Z" fill="#FFA684"/>
<path d="M382.418 131.391C382.418 131.391 375.493 152.515 381.496 161.058C381.496 161.058 375.147 139.703 382.418 131.391Z" fill="#1A1A1A"/>
<path d="M389.923 153.785L388.537 154.247C388.537 154.247 384.266 166.715 388.075 167.524C391.884 168.331 394.886 166.829 394.886 166.829L389.923 153.785Z" fill="#FFDBC1"/>
<path d="M420.87 165.576C420.87 165.576 426.119 170.599 421.319 176.649L418.321 172.832C418.321 172.832 418.086 172.618 408.169 181.264L420.87 165.576ZM414.85 181.745C414.056 182.184 413.192 182.625 412.257 183.061C413.128 182.554 413.994 182.128 414.85 181.745Z" fill="#FFA684"/>
<path d="M262.483 349.68C261.969 349.597 261.488 349.948 261.408 350.461C261.324 350.971 261.669 351.45 262.178 351.536C282.859 354.956 302.175 366.216 315.331 382.536C328.487 398.856 335.403 420.128 334.357 441.067C333.403 460.103 325.921 478.768 313.461 493.192C301.001 507.619 283.622 517.743 264.927 521.456C264.412 521.553 264.076 522.054 264.182 522.568C264.285 523.079 264.783 523.408 265.292 523.301C284.409 519.502 302.141 509.177 314.88 494.426C327.619 479.677 335.251 460.628 336.224 441.163C337.297 419.752 330.252 398.052 316.797 381.362C303.342 364.673 283.635 353.177 262.483 349.68Z" fill="#999999"/>
<path d="M559.861 388.316C559.532 388.212 559.183 388.393 559.078 388.72C558.975 389.046 559.156 389.395 559.482 389.5C570.588 393.038 580.462 400.371 587.061 409.981C593.659 419.588 596.96 431.436 596.273 443.07C595.609 454.337 591.215 465.368 583.957 474.009C576.696 482.652 566.59 488.883 555.607 491.484C555.276 491.563 555.068 491.894 555.143 492.228C555.222 492.567 555.564 492.776 555.901 492.692C567.151 490.029 577.485 483.669 584.922 474.815C592.359 465.963 596.838 454.685 597.519 443.143C598.224 431.223 594.858 419.116 588.099 409.272C581.339 399.428 571.237 391.939 559.861 388.316Z" fill="#999999"/>
</svg>
